<svg width="610" height="627" viewBox="0 0 610 627" fill="none" xmlns="http://www.w3.org/2000/svg">
<path opacity="0.1" d="M0 495.657L252.44 626.999L610 409.873L370.509 269.693L0 495.657Z" fill="black"/>
<path d="M462.224 402.409L470.755 397.381L471.213 199.605L462.833 204.633L462.224 402.409Z" fill="#E6E6FF"/>
<path d="M462.833 204.632L471.212 199.604L356.342 133.323L347.811 138.199L462.833 204.632Z" fill="#AEB6BC"/>
<path d="M347.81 138.2L347.201 335.975L462.223 402.408L462.833 204.633L347.81 138.2Z" fill="#C0C0F6"/>
<path d="M175.962 570.625L184.494 565.75L184.951 367.974L176.572 372.85L175.962 570.625Z" fill="#ACACE0"/>
<path d="M176.572 372.848L184.951 367.973L70.0805 301.54L61.5491 306.568L176.572 372.848Z" fill="#AEB6BC"/>
<path d="M61.5485 306.569L60.9391 504.344L175.962 570.625L176.571 372.849L61.5485 306.569Z" fill="#C0C0F6"/>
<path d="M10.0554 319.976V332.47L158.29 418.559V406.064L10.0554 319.976Z" fill="#ACACE0"/>
<path d="M158.289 406.063V418.557L495.74 223.829V211.182L158.289 406.063Z" fill="#C0C0F6"/>
<path d="M10.0554 319.975L158.29 406.064L495.74 211.183L347.505 125.095L10.0554 319.975Z" fill="#E9F0F4"/>
<path d="M260.362 242.571L299.515 265.274L391.838 211.792L352.837 189.089L260.362 242.571Z" fill="#C0C0F6"/>
<path d="M265.238 236.325V241.963L292.203 257.657V252.019L265.238 236.325Z" fill="#95C4DE"/>
<path d="M292.204 252.021V257.658L356.342 220.633V215.147L292.204 252.021Z" fill="#A9D6EA"/>
<path d="M265.238 236.326L292.203 252.02L356.342 215.147L329.224 199.3L265.238 236.326Z" fill="#E6E7EC"/>
<path d="M265.238 236.326L356.342 215.147L329.224 199.3L265.238 236.326Z" fill="#DEF6FF"/>
<path d="M290.222 241.657L285.347 238.914L285.194 188.937L290.07 191.679L290.222 241.657Z" fill="#95C4DE"/>
<path d="M290.069 191.681L285.194 188.938L328.766 163.797L333.489 166.54L290.069 191.681Z" fill="#C0C5D1"/>
<path d="M333.488 166.539L333.64 216.516L290.221 241.657L290.069 191.68L333.488 166.539Z" fill="#A9D6EA"/>
<path d="M246.347 241.354L241.624 240.135L221.819 142.009L226.389 143.228L246.347 241.354Z" fill="#95C4DE"/>
<path d="M226.389 143.226L221.819 142.007L351.162 67.3462L355.733 68.5651L226.389 143.226Z" fill="#A9D6EA"/>
<path d="M355.732 68.5662L375.689 166.692L246.346 241.353L226.388 143.227L355.732 68.5662Z" fill="#DEF6FF"/>
<path d="M352.227 76.4897L369.9 164.712L250.155 234.04L231.873 144.599L352.227 76.4897Z" fill="url(#paint0_linear_6_356)"/>
<path d="M336.84 105.286L348.419 162.882L270.417 207.983L258.534 149.626L336.84 105.286Z" fill="#DEFCFF"/>
<path d="M336.993 124.332L337.45 126.923L293.879 153.282L293.269 150.845L336.993 124.332Z" fill="#0F0633"/>
<path d="M335.927 117.476L336.384 120.067L292.661 146.427L292.203 143.989L335.927 117.476Z" fill="#0F0633"/>
<path d="M340.344 139.874L340.801 142.464L297.078 168.824L296.62 166.386L340.344 139.874Z" fill="#0F0633"/>
<path d="M339.279 133.018L339.736 135.609L296.012 161.969L295.555 159.531L339.279 133.018Z" fill="#0F0633"/>
<path d="M243.452 143.226L244.519 148.102L237.815 152.063L236.901 147.035L243.452 143.226Z" fill="#0F0633"/>
<path d="M246.498 155.874L247.412 160.749L240.861 164.559L239.795 159.683L246.498 155.874Z" fill="#0F0633"/>
<path d="M249.241 169.436L250.155 174.312L243.452 178.121L242.538 173.246L249.241 169.436Z" fill="#0F0633"/>
<path d="M251.374 181.776L252.289 186.651L245.738 190.461L244.671 185.585L251.374 181.776Z" fill="#0F0633"/>
<path d="M265.39 152.37L285.805 141.704L290.832 167.607L270.418 178.425L265.39 152.37ZM270.875 174.768L289.156 165.169C288.74 163.509 287.808 162.025 286.494 160.929C285.179 159.834 283.551 159.184 281.844 159.074C282.072 158.071 282.072 157.03 281.844 156.027C281.81 155.417 281.625 154.825 281.304 154.305C280.983 153.786 280.537 153.355 280.007 153.052C279.477 152.749 278.879 152.583 278.268 152.571C277.658 152.558 277.054 152.699 276.512 152.979C275.257 153.763 274.275 154.916 273.702 156.281C273.13 157.645 272.993 159.153 273.312 160.598C273.48 161.434 273.846 162.218 274.379 162.883C271.735 166.258 270.433 170.491 270.722 174.768H270.875Z" fill="#0F0633"/>
<path d="M276.663 152.37C277.205 152.089 277.809 151.948 278.42 151.961C279.03 151.974 279.628 152.139 280.158 152.442C280.688 152.745 281.134 153.176 281.455 153.696C281.776 154.215 281.961 154.807 281.995 155.417C282.223 156.42 282.223 157.462 281.995 158.465C283.702 158.575 285.33 159.224 286.645 160.32C287.959 161.415 288.891 162.9 289.308 164.559L271.026 174.159C270.737 169.881 272.039 165.648 274.682 162.274C274.149 161.608 273.783 160.824 273.616 159.988C273.282 158.559 273.395 157.062 273.94 155.699C274.485 154.337 275.435 153.174 276.663 152.37Z" fill="#0F0633"/>
<path d="M125.077 319.213L164.078 341.916L256.553 288.587L217.552 265.884L125.077 319.213Z" fill="#C0C0F6"/>
<path d="M129.038 314.489V319.974L156.004 335.668V330.183L129.038 314.489Z" fill="#95C4DE"/>
<path d="M156.004 330.184V335.67L220.142 298.644V293.158L156.004 330.184Z" fill="#A9D6EA"/>
<path d="M129.038 314.49L156.004 330.184L220.142 293.158L193.024 277.464L129.038 314.49Z" fill="#DEF6FF"/>
<path d="M129.038 314.49L220.142 293.158L193.024 277.464L129.038 314.49Z" fill="#DEF6FF"/>
<path d="M154.024 319.82L149.149 317.078L148.996 266.948L153.871 269.843L154.024 319.82Z" fill="#95C4DE"/>
<path d="M153.871 269.845L148.996 266.95L192.568 241.961L197.291 244.704L153.871 269.845Z" fill="#C0C5D1"/>
<path d="M197.29 244.703L197.442 294.68L154.023 319.821L153.871 269.844L197.29 244.703Z" fill="#A9D6EA"/>
<path d="M110.147 319.366L105.424 318.147L85.6193 220.173L90.1897 221.392L110.147 319.366Z" fill="#95C4DE"/>
<path d="M90.1897 221.393L85.6193 220.174L214.962 145.361L219.533 146.732L90.1897 221.393Z" fill="#A9D6EA"/>
<path d="M219.534 146.73L239.491 244.856L110.148 319.365L90.1904 221.391L219.534 146.73Z" fill="#DEF6FF"/>
<path d="M216.029 154.501L233.702 242.875L114.109 312.051L95.6747 222.762L216.029 154.501Z" fill="url(#paint1_linear_6_356)"/>
<path d="M200.795 183.453L212.221 240.896L134.219 285.998L122.336 227.793L200.795 183.453Z" fill="#6876A5"/>
<path d="M200.795 202.5L201.252 205.09L157.681 231.45L157.071 229.012L200.795 202.5Z" fill="#0F0633"/>
<path d="M199.728 195.644L200.185 198.234L156.613 224.594L156.004 222.003L199.728 195.644Z" fill="#0F0633"/>
<path d="M204.146 218.042L204.603 220.632L160.88 246.992L160.422 244.554L204.146 218.042Z" fill="#0F0633"/>
<path d="M203.079 211.185L203.536 213.776L159.812 240.135L159.355 237.545L203.079 211.185Z" fill="#0F0633"/>
<path d="M107.253 221.393L108.319 226.269L101.616 230.078L100.702 225.202L107.253 221.393Z" fill="#0F0633"/>
<path d="M110.3 234.041L111.214 238.917L104.663 242.726L103.597 237.698L110.3 234.041Z" fill="#0F0633"/>
<path d="M113.042 247.6L113.956 252.476L107.405 256.285L106.338 251.257L113.042 247.6Z" fill="#0F0633"/>
<path d="M115.175 259.943L116.089 264.819L109.538 268.628L108.471 263.6L115.175 259.943Z" fill="#0F0633"/>
<path d="M129.191 230.229L149.453 219.411L154.633 245.771L134.218 256.436L129.191 230.229ZM134.675 252.627L152.957 242.876C152.541 241.216 151.608 239.731 150.294 238.636C148.98 237.54 147.351 236.891 145.644 236.781C145.871 235.829 145.871 234.837 145.644 233.886C145.644 230.838 142.597 229.467 140.312 230.686C139.102 231.514 138.157 232.672 137.59 234.024C137.022 235.375 136.857 236.861 137.113 238.304C137.25 239.196 137.617 240.036 138.179 240.742C135.496 244.096 134.188 248.345 134.523 252.627H134.675Z" fill="#0F0633"/>
<path d="M140.465 230.689C142.75 229.47 145.188 230.689 145.797 233.888C146.024 234.84 146.024 235.832 145.797 236.783C147.505 236.893 149.133 237.543 150.447 238.638C151.761 239.734 152.694 241.218 153.11 242.878L134.828 252.63C134.494 248.348 135.801 244.099 138.485 240.745C137.813 240.073 137.338 239.23 137.114 238.307C136.873 236.849 137.062 235.352 137.657 234C138.252 232.647 139.228 231.497 140.465 230.689Z" fill="#6876A5"/>
<path d="M271.179 289.349V295.444L304.239 314.795V308.548L271.179 289.349Z" fill="#82A5B5"/>
<path d="M304.24 308.549V314.797L419.871 247.906V241.659L304.24 308.549Z" fill="#5B737E"/>
<path d="M271.179 289.351L304.239 308.549L419.871 241.659L386.811 222.46L271.179 289.351Z" fill="#92B8CA"/>
<path d="M278.949 288.285L290.223 294.837L397.323 233.279L385.288 227.185L278.949 288.285Z" fill="#ABCFDD"/>
<path d="M295.707 297.12L306.981 303.672L414.081 242.115L402.046 236.02L295.707 297.12Z" fill="#ABCFDD"/>
<path opacity="0.6" d="M474.258 473.411C519.2 496.571 518.896 534.358 474.258 557.061C448.975 568.469 421.555 574.368 393.818 574.368C366.082 574.368 338.662 568.469 313.379 557.061C268.893 533.901 268.741 496.114 313.379 473.411C338.651 461.965 366.075 456.044 393.818 456.044C421.561 456.044 448.985 461.965 474.258 473.411Z" fill="#FFEBC4"/>
<g opacity="0.86">
<path opacity="0.66" d="M482.943 410.33C533.065 436.233 532.913 477.982 482.943 503.885C454.68 516.69 424.009 523.314 392.982 523.314C361.954 523.314 331.283 516.69 303.02 503.885C253.203 477.982 252.898 436.08 303.02 410.33C331.289 397.544 361.957 390.93 392.982 390.93C424.006 390.93 454.675 397.544 482.943 410.33Z" fill="#C7DEFA"/>
</g>
<g opacity="0.71">
<path opacity="0.71" d="M491.474 347.098C547.081 375.896 546.776 422.217 491.474 450.71C460.192 464.869 426.251 472.192 391.915 472.192C357.579 472.192 323.637 464.869 292.356 450.71C237.206 422.217 236.901 375.744 292.356 347.098C323.658 333.016 357.591 325.734 391.915 325.734C426.238 325.734 460.172 333.016 491.474 347.098Z" fill="#CBDCF5"/>
</g>
<g opacity="0.57">
<path opacity="0.77" d="M500.006 284.016C560.945 315.556 560.945 366.295 500.006 397.531C465.705 413.044 428.493 421.067 390.849 421.067C353.204 421.067 315.992 413.044 281.691 397.531C220.752 366.295 220.752 315.404 280.93 284.016C315.352 268.458 352.693 260.412 390.468 260.412C428.242 260.412 465.583 268.458 500.006 284.016Z" fill="#CED1F0"/>
</g>
<g opacity="0.43">
<path opacity="0.83" d="M508.69 220.936C574.808 255.372 574.656 310.377 508.69 344.356C471.399 361.228 430.94 369.955 390.011 369.955C349.082 369.955 308.623 361.228 271.332 344.356C205.67 310.377 205.213 254.915 270.418 220.936C307.859 204.025 348.471 195.279 389.554 195.279C430.636 195.279 471.248 204.025 508.69 220.936Z" fill="#D2DCEB"/>
</g>
<g opacity="0.29">
<path opacity="0.89" d="M517.981 157.856C589.585 195.034 589.28 254.458 517.981 291.179C446.683 327.9 333.031 328.357 261.58 291.179C190.129 254.001 190.282 194.577 260.666 157.856C331.051 121.135 446.378 121.897 517.981 157.856Z" fill="#D5DCE6"/>
</g>
<g opacity="0.14">
<path opacity="0.94" d="M525.905 94.775C602.079 134.696 602.079 198.539 525.905 238.002C449.731 277.466 327.853 277.923 250.308 238.002C172.763 198.081 174.134 134.239 249.394 94.775C324.654 55.3113 449.579 55.3113 525.905 94.775Z" fill="#D9DAE1"/>
</g>
<path opacity="0.6" d="M474.258 473.716C519.2 497.029 518.896 534.664 474.258 557.367C448.985 568.813 421.561 574.733 393.818 574.733C366.075 574.733 338.651 568.813 313.379 557.367C268.893 534.359 268.741 496.419 313.379 473.716C338.67 462.337 366.086 456.453 393.818 456.453C421.55 456.453 448.967 462.337 474.258 473.716Z" fill="url(#paint2_linear_6_356)"/>
<path d="M501.376 235.409C489.798 232.667 480.048 267.711 461.157 293.614L418.042 264.664C406.311 269.997 410.73 272.587 410.73 272.587C421.987 291.496 438.43 306.778 458.11 316.622C460.941 317.835 464.034 318.307 467.098 317.993C488.732 307.175 500.919 284.929 510.517 257.046C517.982 237.999 501.376 235.409 501.376 235.409Z" fill="#EFB185"/>
<path d="M502.747 228.553C502.747 228.553 541.291 237.543 502.747 293.919C495.71 295.109 488.483 293.628 482.48 289.767C476.478 285.906 472.133 279.942 470.297 273.045C470.297 273.045 483.247 226.115 502.747 228.553Z" fill="#4B23C9"/>
<path d="M418.347 264.362C418.347 264.362 403.112 245.164 385.288 247.144C385.288 247.144 385.288 252.325 391.991 255.22C394.342 256.156 396.422 257.663 398.045 259.605C399.667 261.547 400.781 263.863 401.284 266.343C401.284 267.41 395.19 267.41 392.448 267.257C389.706 267.105 386.049 270.914 392.448 272.285C400.135 274.845 408.126 276.382 416.214 276.856C416.214 276.856 423.375 269.543 418.347 264.362Z" fill="#EFB185"/>
<path d="M475.782 489.866C475.723 490.575 475.482 491.256 475.081 491.844C474.681 492.431 474.135 492.905 473.497 493.218L397.323 537.101L394.733 538.167H391.838H388.944C388.079 538.025 387.251 537.714 386.506 537.253H385.592L384.83 536.491C384.83 536.491 384.83 536.491 384.83 535.577V541.976C385.398 542.322 386.014 542.578 386.658 542.738H387.42H394.124H395.038H396.256L472.43 498.856C473.068 498.542 473.614 498.069 474.015 497.481C474.415 496.894 474.657 496.212 474.715 495.504L475.782 489.866Z" fill="#242626"/>
<path d="M480.2 531.768C480.2 531.768 480.2 531.768 480.2 532.53V533.291L477.763 534.358H475.02C474.062 534.517 473.084 534.517 472.126 534.358C471.197 534.189 470.315 533.825 469.536 533.291L393.362 489.409C392.704 489.104 392.135 488.635 391.709 488.049C391.282 487.462 391.012 486.777 390.925 486.057V491.695C390.982 492.424 391.24 493.123 391.67 493.715C392.1 494.307 392.686 494.768 393.362 495.047L469.536 539.081H470.755H471.821H479.286L481.114 538.32V531.92C480.801 531.977 480.478 531.923 480.2 531.768Z" fill="#242626"/>
<path d="M478.067 527.656C478.732 527.909 479.304 528.357 479.707 528.942C480.111 529.527 480.327 530.221 480.327 530.932C480.327 531.643 480.111 532.337 479.707 532.922C479.304 533.507 478.732 533.955 478.067 534.208C476.321 535.182 474.354 535.693 472.354 535.693C470.355 535.693 468.388 535.182 466.641 534.208L390.468 490.326C387.268 488.497 387.268 485.602 390.468 483.774C392.227 482.84 394.189 482.352 396.181 482.352C398.173 482.352 400.134 482.84 401.894 483.774L478.067 527.656Z" fill="#3B3F3F"/>
<path d="M347.658 454.672C347.658 454.672 337.908 458.024 341.259 463.204C344.611 468.385 357.713 475.394 359.846 478.441C361.978 481.488 373.557 493.678 376.299 491.392C379.041 489.107 387.268 490.174 383.764 476.156C381.193 468.927 376.178 462.824 369.585 458.901C362.992 454.978 355.236 453.482 347.658 454.672Z" fill="#111114"/>
<path d="M344.153 352.581C344.153 352.581 328.919 358.981 346.896 437.603L356.341 478.896C356.341 478.896 366.396 494.132 387.725 478.896L377.213 392.654L344.153 352.581Z" fill="#29383D"/>
<path d="M360.607 495.047C360.607 495.047 367.006 508.761 355.275 513.484C343.545 518.207 346.287 510.132 320.54 519.579C294.793 529.026 290.071 515.77 290.071 512.722C290.071 509.675 307.438 502.209 312.923 500.076L333.794 491.848L360.607 490.629V495.047Z" fill="#111114"/>
<path d="M317.188 372.847C317.188 372.847 305.762 378.333 323.282 454.67L332.88 496.114C332.88 496.114 342.935 511.351 364.263 496.114L353.751 409.721L317.188 372.847Z" fill="#29383D"/>
<path d="M355.58 424.349L345.525 419.168L354.666 501.448C358.074 500.075 361.298 498.283 364.264 496.115L355.58 424.349Z" fill="#243135"/>
<path d="M383.155 440.955L370.053 428.613L380.87 483.161C383.494 482.087 385.955 480.651 388.182 478.895L383.155 440.955Z" fill="#243135"/>
<path d="M385.896 530.399C382.697 532.38 382.697 535.275 385.896 537.104C387.667 538.001 389.624 538.468 391.609 538.468C393.594 538.468 395.552 538.001 397.322 537.104L473.496 493.221C474.215 493.002 474.843 492.558 475.29 491.955C475.737 491.351 475.978 490.62 475.978 489.869C475.978 489.118 475.737 488.387 475.29 487.783C474.843 487.18 474.215 486.736 473.496 486.517C471.725 485.62 469.768 485.153 467.783 485.153C465.798 485.153 463.841 485.62 462.07 486.517L385.896 530.399Z" fill="#3B3F3F"/>
<path d="M443.941 451.167C443.866 450.326 443.574 449.519 443.093 448.824C442.612 448.13 441.959 447.572 441.198 447.206C439.033 446.084 436.629 445.498 434.19 445.498C431.751 445.498 429.348 446.084 427.182 447.206C426.245 447.548 425.457 448.208 424.956 449.071C424.455 449.934 424.273 450.945 424.44 451.929V509.372H425.202L427.335 510.287H436.476H437.694H439.066C441.046 509.22 442.113 507.696 441.96 506.325L443.941 451.167ZM424.288 452.234V452.996V452.234Z" fill="#111114"/>
<path d="M422.917 463.508C422.888 463.153 422.888 462.796 422.917 462.441C422.714 461.967 422.401 461.549 422.002 461.222V460.46L417.28 457.108L414.385 454.67L410.576 451.623L409.51 450.861L405.549 448.119L400.674 444.919L399.15 443.852L394.427 440.805H393.666L388.029 437.3L386.353 436.386L380.259 432.729L369.595 426.634L361.825 422.521H361.063L354.208 419.168L348.114 416.426L344.457 415.054H343.696L340.649 414.14H339.278H336.383L419.413 365.839H422.307H423.831L427.03 366.753L430.686 368.277L436.933 371.02H437.694L444.245 374.219H445.464L452.777 378.029H453.691L462.375 383.057C464.507 384.123 466.488 385.342 468.468 386.561L470.144 387.628L475.781 390.98H476.695L481.266 393.875L482.789 394.942L487.512 398.141H488.426L492.235 400.732L493.301 401.646L497.11 404.541L499.852 406.826H500.614L502.747 411.398V412.159C502.814 412.275 502.849 412.407 502.849 412.54C502.849 412.674 502.814 412.805 502.747 412.921L419.717 461.222C419.799 460.975 419.799 460.708 419.717 460.46C419.788 460.16 419.788 459.847 419.717 459.546L422.917 463.508Z" fill="#C0C0F6"/>
<path d="M378.432 431.356C353.752 417.186 333.794 408.806 333.794 412.767C333.794 416.729 353.752 431.509 378.432 445.831C403.112 460.154 423.07 468.382 423.07 464.42C423.07 460.459 403.112 445.679 378.432 431.356Z" fill="#ACACE0"/>
<path d="M498.329 395.248C498.329 395.248 495.434 434.711 452.624 422.827C409.815 410.942 379.497 399.514 379.497 399.514C379.497 399.514 324.348 361.422 346.133 351.67C345.829 351.67 365.634 331.557 498.329 395.248Z" fill="#29383D"/>
<path d="M498.329 395.248C498.329 395.248 495.434 434.711 452.624 422.827C409.815 410.942 379.497 399.514 379.497 399.514C379.497 399.514 324.348 361.422 346.133 351.67C345.829 351.67 365.634 331.557 498.329 395.248Z" fill="#29383D"/>
<path d="M474.868 412.464C474.868 412.464 472.126 451.928 429.164 440.043C397.294 430.35 366.306 417.964 336.536 403.017C336.536 403.017 300.887 378.638 322.673 368.886C322.368 368.886 342.325 348.774 474.868 412.464Z" fill="#29383D"/>
<path d="M322.368 368.885C317.036 371.323 315.208 374.523 315.36 378.027C349.181 378.027 424.289 404.082 424.289 404.082V390.064C337.146 354.105 322.368 368.885 322.368 368.885Z" fill="#354751"/>
<path d="M347.353 350.45C342.02 352.736 340.04 356.088 340.345 359.592C374.166 359.592 449.273 385.647 449.273 385.647V371.629C362.13 335.213 347.353 350.45 347.353 350.45Z" fill="#304047"/>
<path d="M504.27 228.556C504.27 228.556 522.704 238.155 511.583 269.543C502.554 289.682 496.302 310.954 492.997 332.776C493.905 352.69 495.991 372.533 499.243 392.2C499.243 392.2 501.833 418.103 442.265 432.426C442.265 432.426 393.361 436.387 402.045 404.39C409.676 372.906 413.613 340.64 413.776 308.245C412.862 295.903 405.854 271.067 437.085 255.068C468.316 239.069 484.617 226.88 504.27 228.556Z" fill="#632BEE"/>
<path d="M413.776 308.089C413.613 340.485 409.676 372.751 402.046 404.235C396.104 426.48 417.28 431.204 431.449 432.271C436.171 417.948 429.316 392.197 440.133 361.114C451.597 334.345 453.638 304.477 445.922 276.397C444.8 272.373 442.505 268.776 439.331 266.062C436.156 263.348 432.245 261.642 428.097 261.16C421.497 266.811 416.644 274.228 414.107 282.54C411.571 290.852 411.456 299.715 413.776 308.089Z" fill="#4B23C9"/>
<path d="M499.243 392.046C495.991 372.379 493.905 352.536 492.997 332.622C496.391 310.82 502.64 289.56 511.583 269.389C521.79 239.677 510.669 231.601 504.27 228.402C500.766 243.639 447.14 249.276 448.206 258.875C449.273 268.475 463.441 281.426 463.441 301.996C463.84 324.463 461.694 346.903 457.043 368.886C453.998 388.475 453.998 408.417 457.043 428.005C501.376 413.378 499.243 392.046 499.243 392.046Z" fill="#693DF4"/>
<path d="M482.79 212.404C481.447 221.455 482.498 230.701 485.836 239.221C490.864 248.668 451.863 256.438 451.101 247.753C453.313 242.691 454.339 237.191 454.102 231.672C453.864 226.153 452.369 220.761 449.73 215.908C445.007 206.918 482.79 212.404 482.79 212.404Z" fill="#EFB185"/>
<path d="M485.685 239.828C482.54 232.271 481.335 224.048 482.181 215.906L453.692 229.315C454.758 229.315 473.649 234.8 477.61 248.666C483.4 246.532 487.513 243.79 485.685 239.828Z" fill="#DD9569"/>
<path d="M442.723 167.605C439.119 176.402 437.306 185.83 437.39 195.336C438.457 209.202 436.324 211.944 437.39 218.039C437.346 221.319 438.362 224.525 440.285 227.181C443.888 229.735 448.119 231.255 452.523 231.577C456.927 231.899 461.334 231.011 465.27 229.01C473.739 226.003 480.853 220.063 485.324 212.266C489.795 204.469 491.328 195.328 489.646 186.499C488.61 181.609 486.387 177.049 483.173 173.221C479.959 169.393 475.854 166.414 471.218 164.548C466.581 162.681 461.558 161.983 456.588 162.517C451.619 163.05 446.857 164.797 442.723 167.605Z" fill="#EFB185"/>
<path d="M438.608 161.663C438.079 165.53 438.78 169.465 440.612 172.911C442.444 176.357 445.314 179.138 448.815 180.862C456.28 184.823 455.366 197.013 454.909 199.298C453.761 203.781 453.148 208.384 453.081 213.012C454.757 215.602 460.851 207.831 463.593 208.441C470.753 209.964 467.859 216.668 461.156 223.677C454.452 230.686 472.277 234.343 480.808 228.401C485.379 225.201 487.055 223.373 493.149 211.64C502.137 194.88 502.899 174.31 482.941 163.034C462.984 151.759 451.101 167.606 438.608 161.663Z" fill="#221101"/>
<path d="M480.809 228.553C485.379 225.353 487.055 223.525 493.149 211.792C502.137 195.032 502.899 174.462 482.941 163.186C462.984 151.911 451.101 167.3 438.608 161.968C438.332 163.683 438.332 165.432 438.608 167.148C445.007 168.367 462.375 172.176 466.793 179.795C471.211 187.413 478.371 186.194 477.762 197.774C477.152 209.354 479.59 223.372 460.851 229.315C463.911 231.083 467.408 231.95 470.94 231.815C474.471 231.68 477.892 230.549 480.809 228.553Z" fill="#341C09"/>
<path d="M445.311 351.668C442.722 349.078 435.866 372.543 430.077 404.083C424.805 424.259 422.596 445.113 423.526 465.945C426.116 468.535 433.124 445.07 438.761 413.53C444.158 393.378 446.369 372.504 445.311 351.668Z" fill="#ACACE0"/>
<path d="M529.257 295.598C529.185 295.297 529.185 294.984 529.257 294.684H528.038L444.856 353.498H446.227C446.156 353.799 446.156 354.112 446.227 354.412C445.691 374.308 443.242 394.106 438.914 413.532C436.487 431.667 431.351 449.336 423.68 465.947L505.947 417.798C513.114 397.331 518.218 376.199 521.182 354.717C525.775 335.318 528.479 315.519 529.257 295.598Z" fill="#C0C0F6"/>
<path d="M345.371 308.243C345.371 308.243 314.902 296.511 321.3 279.902C322.367 277.16 325.566 273.655 329.984 279.902C334.402 286.149 348.266 290.416 348.723 296.968C348.723 297.272 351.618 312.052 345.371 308.243Z" fill="#EFB185"/>
<path d="M432.058 268.018C420.479 265.275 410.729 300.32 391.838 326.223L348.723 297.273C336.993 302.758 341.258 305.349 341.258 305.349C352.625 324.185 369.11 339.403 388.791 349.231C391.533 350.562 394.611 351.039 397.627 350.602C419.413 339.784 431.448 317.691 441.199 289.655C448.207 270.761 432.058 268.018 432.058 268.018Z" fill="#EFB185"/>
<path d="M433.428 261.009C433.428 261.009 471.972 269.999 433.428 326.528C426.4 327.647 419.205 326.137 413.219 322.286C407.233 318.435 402.875 312.514 400.978 305.653C400.978 305.653 413.928 259.028 433.428 261.009Z" fill="#632BEE"/>
<path d="M340.802 287.367C340.802 287.367 339.278 280.815 340.802 280.206C345.361 284.79 348.165 290.83 348.724 297.271C347.81 301.385 340.802 287.367 340.802 287.367Z" fill="#EFB185"/>
<defs>
<linearGradient id="paint0_linear_6_356" x1="231.873" y1="155.265" x2="369.9" y2="155.265" gradientUnits="userSpaceOnUse">
<stop stop-color="#3A3586"/>
<stop offset="1" stop-color="#626BDC"/>
</linearGradient>
<linearGradient id="paint1_linear_6_356" x1="962.484" y1="2566.59" x2="2213.01" y2="2566.59" gradientUnits="userSpaceOnUse">
<stop stop-color="#3A3586"/>
<stop offset="1" stop-color="#626BDC"/>
</linearGradient>
<linearGradient id="paint2_linear_6_356" x1="393.904" y1="456.453" x2="393.904" y2="574.733" gradientUnits="userSpaceOnUse">
<stop stop-color="#EB00FF"/>
<stop offset="1" stop-color="#1B00C1"/>
</linearGradient>
</defs>
</svg>
