<svg width="722" height="821" viewBox="0 0 722 821" fill="none" xmlns="http://www.w3.org/2000/svg">
<g opacity="0.7">
<g opacity="0.5">
<path opacity="0.5" d="M169.629 105.225C170.295 105.686 170.858 106.28 171.283 106.969C171.707 107.658 171.984 108.428 172.096 109.23L175.797 124.636C176.014 125.926 176.543 127.142 177.339 128.18C180.247 130.546 182.979 133.12 185.512 135.883H186.437L195.381 131.569C195.661 131.331 196.016 131.199 196.384 131.199C196.751 131.199 197.107 131.331 197.386 131.569C198.012 131.957 198.54 132.485 198.928 133.11L208.489 146.976C209.569 148.67 209.877 150.519 208.489 151.289L203.092 160.533C202.848 160.955 202.72 161.433 202.72 161.92C202.72 162.406 202.848 162.885 203.092 163.306C204.582 166.929 205.869 170.633 206.947 174.399H207.872L219.901 181.948C220.642 182.393 221.275 182.998 221.755 183.717C222.235 184.436 222.55 185.252 222.676 186.108L224.373 201.514C224.373 203.208 223.601 204.133 222.214 203.671L211.419 200.281C211.091 200.019 210.683 199.876 210.263 199.876C209.842 199.876 209.434 200.019 209.106 200.281C208.536 202.992 207.656 205.628 206.484 208.138C206.401 208.649 206.401 209.169 206.484 209.679L214.503 225.085C215.737 226.626 215.891 228.629 214.503 229.399L207.255 236.178C206.976 236.417 206.621 236.548 206.253 236.548C205.886 236.548 205.53 236.417 205.251 236.178C204.632 235.848 204.102 235.372 203.709 234.791L193.068 222.312C192.574 221.627 191.944 221.05 191.218 220.618H190.293C187.737 221.004 185.138 221.004 182.582 220.618C182.505 221.076 182.505 221.545 182.582 222.004V235.408C182.582 237.102 181.811 238.027 180.423 237.41L169.629 232.788C168.963 232.328 168.399 231.734 167.975 231.044C167.55 230.355 167.273 229.585 167.161 228.783L163.461 213.377C163.273 212.125 162.739 210.951 161.918 209.987C158.971 207.61 156.236 204.981 153.745 202.13C153.575 202.058 153.391 202.021 153.206 202.021C153.02 202.021 152.837 202.058 152.666 202.13L143.876 206.29C143.597 206.528 143.241 206.66 142.874 206.66C142.506 206.66 142.151 206.528 141.871 206.29C141.252 205.96 140.723 205.484 140.329 204.903L130.768 190.883C129.535 189.343 129.381 187.34 130.768 186.57L136.166 177.326C136.426 176.91 136.563 176.43 136.563 175.939C136.563 175.449 136.426 174.969 136.166 174.553C134.607 170.956 133.319 167.248 132.311 163.46H131.385L119.357 155.911C118.691 155.45 118.128 154.856 117.703 154.167C117.278 153.477 117.001 152.707 116.89 151.906L115.194 137.27C115.194 135.575 115.194 134.651 117.352 135.267L128.764 137.578C129.843 137.578 130.614 137.578 131.077 137.578C131.576 134.848 132.458 132.203 133.698 129.721C133.537 129.165 133.276 128.643 132.927 128.18L123.367 112.311C122.922 111.651 122.685 110.873 122.685 110.078C122.685 109.282 122.922 108.504 123.367 107.844L130.768 101.065C131.048 100.826 131.403 100.695 131.771 100.695C132.138 100.695 132.494 100.826 132.773 101.065C133.399 101.453 133.927 101.98 134.315 102.606L144.956 114.931C145.45 115.616 146.08 116.193 146.806 116.625H147.731C150.287 116.234 152.887 116.234 155.442 116.625V115.547V102.143C155.442 100.449 156.213 99.5243 157.601 100.141L169.629 105.071V105.225Z" fill="white"/>
</g>
<g opacity="0.5">
<path opacity="0.5" d="M177.339 71.4845C177.339 72.717 177.339 73.3333 175.797 72.8711L167.778 71.3305C167.007 71.3305 166.545 71.3305 166.236 71.3305C165.828 73.2921 165.208 75.2035 164.386 77.0308C164.386 77.0308 164.386 77.0308 164.386 78.1092L170.091 88.5855C170.091 89.6639 171.017 91.0505 170.091 91.5127L165.002 96.4427C164.808 96.6057 164.562 96.695 164.309 96.695C164.055 96.695 163.809 96.6057 163.615 96.4427L162.381 95.3642L154.979 86.5827L154.208 85.6583C152.423 85.9753 150.596 85.9753 148.811 85.6583C148.811 85.6583 148.811 85.6583 148.811 86.5827V96.1345C148.811 97.367 148.811 97.9833 147.269 97.5211L138.787 93.9777C138.326 93.6595 137.937 93.2483 137.645 92.7707C137.353 92.2931 137.164 91.7595 137.091 91.2045L134.469 80.5742C134.432 79.6463 134.047 78.7663 133.39 78.1092C131.325 76.3819 129.368 74.5297 127.53 72.563L121.362 75.4902C121.133 75.6425 120.865 75.7238 120.591 75.7238C120.316 75.7238 120.048 75.6425 119.82 75.4902C119.386 75.2132 119.017 74.8452 118.74 74.4117L111.955 64.5517C111.629 64.104 111.454 63.5647 111.454 63.0111C111.454 62.4575 111.629 61.9181 111.955 61.4705L115.81 54.9998C115.81 54.9998 115.81 53.9214 115.81 52.997C114.725 50.4898 113.798 47.917 113.035 45.2939L104.553 39.9017C104.099 39.5768 103.714 39.1639 103.423 38.6875C103.131 38.211 102.939 37.6809 102.857 37.1286L98.6932 26.036C98.6932 24.8035 98.6932 24.1873 100.235 24.6495L107.946 26.1901C108.164 26.3651 108.436 26.4605 108.717 26.4605C108.997 26.4605 109.269 26.3651 109.488 26.1901C109.87 24.2714 110.492 22.4081 111.338 20.6438C111.418 20.2888 111.418 19.9205 111.338 19.5654L105.478 8.78102C105.478 7.54852 104.553 6.16196 105.478 5.69977L110.413 0.769765C110.607 0.606751 110.853 0.517396 111.107 0.517396C111.361 0.517396 111.606 0.606751 111.801 0.769765C112.235 1.0467 112.603 1.41471 112.88 1.8482L120.436 10.6298C120.72 11.1507 121.149 11.5786 121.67 11.8623C123.507 11.549 125.384 11.549 127.222 11.8623V11.092V1.54008C127.222 0.307577 127.222 -0.308673 128.609 0.153515L138.787 3.69696C139.349 3.96588 139.831 4.37805 140.182 4.89193C140.534 5.40582 140.745 6.00328 140.792 6.62415L143.413 17.4085C143.642 18.2815 144.006 19.1133 144.493 19.8735C146.627 21.4639 148.591 23.271 150.353 25.2657L156.675 22.3385C156.87 22.1755 157.115 22.0862 157.369 22.0862C157.623 22.0862 157.869 22.1755 158.063 22.3385C158.497 22.6155 158.865 22.9835 159.143 23.417L165.928 33.277C166.214 33.7398 166.366 34.2733 166.366 34.8176C166.366 35.3619 166.214 35.8954 165.928 36.3582L162.073 42.8289C162.073 42.8289 162.073 43.9073 162.073 44.8317C163.226 47.3647 164.155 49.9938 164.848 52.6889L173.33 58.0811C173.819 58.3835 174.238 58.7877 174.557 59.2662C174.877 59.7447 175.089 60.2863 175.18 60.8542L177.339 71.4845ZM138.787 77.0308C152.049 84.5798 162.689 78.4173 162.689 63.1651C162.32 54.7865 159.959 46.616 155.803 39.3293C151.647 32.0426 145.814 25.8488 138.787 21.2601C124.908 13.711 114.114 19.8735 114.114 35.1257C114.543 43.5798 117.011 51.8051 121.307 59.1013C125.603 66.3975 131.6 72.5485 138.787 77.0308Z" fill="white"/>
</g>
<g opacity="0.5">
<path opacity="0.5" d="M233.47 115.855C233.47 116.625 233.47 117.088 232.391 116.78L227.148 115.701C226.99 115.588 226.802 115.528 226.608 115.528C226.414 115.528 226.226 115.588 226.068 115.701C225.774 116.969 225.361 118.207 224.835 119.399L228.69 126.485C228.69 127.256 228.69 128.18 228.69 128.488L223.755 132.032C223.755 132.032 223.755 132.032 222.83 132.032H222.059L217.124 126.177C217.124 126.177 217.124 125.099 217.124 124.945H214.349V130.953C214.349 131.878 214.349 132.186 213.423 132.032L207.718 129.567C207.389 129.368 207.108 129.099 206.895 128.78C206.682 128.46 206.541 128.098 206.484 127.718L204.788 120.631C204.593 120.089 204.334 119.572 204.017 119.09C202.62 117.979 201.33 116.741 200.161 115.393L194.61 118.474H193.685C193.685 118.474 193.685 118.474 192.914 118.474L188.442 112.004C188.442 112.004 188.442 110.309 188.442 109.847L192.297 104.609C192.297 104.609 192.297 104.609 192.297 103.222C191.523 101.535 190.904 99.782 190.446 97.9839L184.741 94.4405C184.121 94.4647 183.51 94.2806 183.007 93.9176C182.504 93.5545 182.137 93.0335 181.965 92.4376L181.194 85.5048C181.194 85.5048 181.194 84.2723 182.119 84.5804L187.516 85.6589C187.674 85.7717 187.863 85.8325 188.056 85.8325C188.25 85.8325 188.439 85.7717 188.596 85.6589C188.89 84.3905 189.303 83.1526 189.83 81.9614L183.815 72.7176C183.602 72.4271 183.488 72.0763 183.488 71.7162C183.488 71.3561 183.602 71.0053 183.815 70.7148L187.362 67.4795C187.362 67.4795 187.362 67.4795 188.287 67.4795L195.535 75.4908C195.757 75.8362 196.08 76.1051 196.46 76.2611C197.838 76.2111 199.209 76.4745 200.47 77.0314V70.5607C200.47 70.5607 200.47 69.3282 201.704 69.6364L207.101 71.9473C207.466 72.1187 207.783 72.3768 208.025 72.6991C208.267 73.0214 208.426 73.3981 208.489 73.7961L210.185 81.1911C210.041 81.7469 210.041 82.33 210.185 82.8858C211.067 83.536 211.847 84.315 212.498 85.1967L216.507 82.2695H217.433H218.204L224.835 90.897C225.048 91.1875 225.162 91.5383 225.162 91.8984C225.162 92.2585 225.048 92.6093 224.835 92.8998L222.367 97.2136C222.241 97.3944 222.174 97.6095 222.174 97.8298C222.174 98.0502 222.241 98.2653 222.367 98.4461C223.12 100.141 223.739 101.892 224.218 103.684L231.311 107.844C231.676 108.015 231.994 108.273 232.236 108.596C232.478 108.918 232.637 109.295 232.699 109.693L233.47 115.855ZM207.255 118.936C216.045 124.02 222.676 119.861 222.676 109.847C222.416 104.393 220.886 99.0746 218.21 94.3143C215.533 89.554 211.782 85.4827 207.255 82.4236C198.311 77.4936 191.834 81.4992 191.834 91.6673C192.094 97.1001 193.624 102.396 196.302 107.132C198.98 111.867 202.731 115.91 207.255 118.936Z" fill="white"/>
</g>
</g>
<g opacity="0.3">
<path opacity="0.3" d="M465.398 631.811L445.043 643.52L440.417 640.901L456.454 631.657L450.749 630.424L453.524 627.805L461.389 629.5L465.398 631.811Z" fill="#FFD2CD"/>
<path opacity="0.3" d="M445.043 619.639C450.44 622.874 447.819 626.88 442.267 630.115C439.605 631.932 436.522 633.042 433.312 633.338C430.101 633.635 426.867 633.109 423.916 631.81C418.673 628.728 420.986 624.723 426.692 621.333C429.366 619.542 432.446 618.449 435.652 618.153C438.857 617.857 442.086 618.368 445.043 619.639ZM427.617 629.807C429.468 630.885 432.706 629.807 437.332 627.342C441.959 624.877 443.347 622.874 441.342 621.795C439.337 620.717 436.253 621.795 431.473 624.106C426.692 626.417 425.767 628.728 427.617 629.807Z" fill="#FFD2CD"/>
<path opacity="0.3" d="M427.617 609.625C433.015 612.707 430.393 616.866 424.842 620.102C422.184 621.937 419.091 623.044 415.872 623.315C412.652 623.585 409.418 623.008 406.491 621.642C401.248 618.715 403.561 614.555 409.267 611.32C411.911 609.461 414.996 608.326 418.216 608.028C421.435 607.731 424.677 608.282 427.617 609.625ZM410.192 619.64C412.042 620.769 415.281 619.999 419.907 617.329C424.379 614.709 425.921 612.861 423.916 611.628C421.912 610.396 418.827 611.628 414.047 613.939C409.267 616.25 408.341 618.561 410.192 619.64Z" fill="#FFD2CD"/>
<path opacity="0.3" d="M517.674 662.007L497.319 673.716L492.693 671.096L508.73 661.699L503.025 660.62L505.8 658.001L513.665 659.696L517.674 662.007Z" fill="#FFD2CD"/>
<path opacity="0.3" d="M532.17 670.018C537.722 673.099 534.946 677.105 529.395 680.34C526.764 682.229 523.676 683.382 520.45 683.68C517.224 683.978 513.977 683.41 511.044 682.035C505.801 678.954 508.114 674.948 513.82 671.559C516.49 669.752 519.58 668.662 522.794 668.392C526.007 668.122 529.236 668.682 532.17 670.018ZM514.745 680.032C516.595 681.111 519.988 680.032 524.614 677.721C529.241 675.41 530.474 673.099 528.469 672.021C526.465 670.943 523.381 672.021 518.6 674.332C513.82 676.643 512.895 678.954 514.745 680.032Z" fill="#FFD2CD"/>
<g opacity="0.3">
<path opacity="0.3" d="M479.894 639.822C485.291 642.904 482.67 646.909 477.118 650.145C474.487 652.034 471.399 653.187 468.173 653.484C464.947 653.782 461.7 653.214 458.767 651.839C453.524 648.912 455.837 644.752 461.543 641.363C464.213 639.556 467.303 638.466 470.517 638.196C473.73 637.926 476.959 638.486 479.894 639.822ZM462.623 649.836C464.473 650.915 467.866 649.836 472.338 647.525C476.81 645.215 478.352 642.904 476.347 641.825C474.342 640.747 471.258 641.825 466.478 644.136C461.697 646.447 460.772 648.758 462.623 649.836Z" fill="#FFD2CD"/>
<path opacity="0.3" d="M497.319 649.837C502.717 653.073 500.095 657.078 494.544 660.313C491.886 662.148 488.793 663.256 485.574 663.526C482.354 663.797 479.12 663.22 476.193 661.854C470.95 658.927 473.263 654.767 478.969 651.532C481.613 649.672 484.698 648.537 487.918 648.24C491.138 647.943 494.379 648.493 497.319 649.837ZM479.894 660.005C481.744 660.93 485.137 660.005 489.609 657.54C494.081 655.075 495.623 653.073 493.618 651.84C491.614 650.608 488.53 651.84 483.749 654.305C478.969 656.77 478.043 658.927 479.894 660.005Z" fill="#FFD2CD"/>
</g>
<path opacity="0.3" d="M549.596 680.033C555.147 683.114 552.372 687.274 546.82 690.355C544.189 692.244 541.102 693.397 537.876 693.695C534.65 693.993 531.402 693.425 528.47 692.049C523.227 689.122 525.54 684.963 531.245 681.573C533.915 679.767 537.006 678.676 540.219 678.406C543.433 678.137 546.662 678.697 549.596 680.033ZM532.171 690.047C534.021 691.125 537.414 690.047 542.04 687.736C546.666 685.425 547.9 683.114 545.895 682.035C543.89 680.957 540.806 682.035 536.026 684.346C531.245 686.657 530.32 688.968 532.171 690.047Z" fill="#FFD2CD"/>
<path opacity="0.3" d="M604.802 712.232L584.601 723.94L579.975 721.321L596.012 712.078L590.152 710.845L592.928 708.38L600.793 709.921L604.802 712.232Z" fill="#FFD2CD"/>
<g opacity="0.3">
<path opacity="0.3" d="M567.021 690.046C572.572 693.281 569.796 697.287 564.245 700.522C561.583 702.34 558.5 703.449 555.289 703.746C552.079 704.042 548.845 703.516 545.894 702.217C540.651 699.136 542.964 694.976 548.67 691.741C551.326 689.909 554.41 688.792 557.623 688.495C560.837 688.198 564.073 688.732 567.021 690.046ZM549.595 700.214C551.446 701.293 554.838 700.214 559.464 697.749C564.091 695.284 565.324 693.281 563.32 692.049C561.315 690.816 558.231 692.049 553.605 694.514C548.978 696.979 547.745 699.136 549.595 700.214Z" fill="#FFD2CD"/>
<path opacity="0.3" d="M587.376 702.217L567.02 713.926L562.548 711.307L578.586 701.909L572.726 700.83L575.502 698.211L583.366 699.906L587.376 702.217Z" fill="#FFD2CD"/>
</g>
<path opacity="0.3" d="M619.297 720.243C624.848 723.478 622.073 727.484 616.521 730.719C613.863 732.554 610.771 733.662 607.551 733.932C604.332 734.202 601.098 733.626 598.171 732.26C592.928 729.333 595.395 725.173 601.101 721.784C603.741 719.977 606.806 718.885 609.995 718.615C613.185 718.345 616.39 718.906 619.297 720.243ZM601.409 730.257C603.259 731.336 606.652 730.257 611.278 727.946C615.904 725.635 617.138 723.478 615.288 722.246C613.437 721.013 610.045 722.246 605.418 724.711C600.792 727.176 599.558 729.179 601.409 730.257Z" fill="#FFD2CD"/>
<path opacity="0.3" d="M427.926 653.533L407.571 665.396L402.944 662.622L419.136 653.379L413.276 652.146L416.052 649.527L423.917 651.222L427.926 653.533Z" fill="#FFD2CD"/>
<path opacity="0.3" d="M445.351 663.547L424.996 675.41L420.524 672.637L436.561 663.393L430.701 662.161L433.477 659.696L441.342 661.236L445.351 663.547Z" fill="#FFD2CD"/>
<path opacity="0.3" d="M462.776 673.716L442.421 685.424L437.795 682.805L453.832 673.408L448.127 672.175L450.902 669.71L458.767 671.405L462.776 673.716Z" fill="#FFD2CD"/>
<path opacity="0.3" d="M478.043 681.727C483.595 684.808 480.819 688.814 475.268 692.049C472.624 693.909 469.538 695.044 466.319 695.341C463.099 695.639 459.857 695.088 456.917 693.744C451.674 690.663 453.987 686.657 459.693 683.268C462.363 681.461 465.453 680.371 468.666 680.101C471.88 679.831 475.109 680.391 478.043 681.727ZM460.618 691.741C462.468 692.82 465.861 691.741 470.487 689.43C475.113 687.119 476.347 684.808 474.342 683.73C472.338 682.652 469.254 683.73 464.627 686.041C460.001 688.352 458.767 690.663 460.618 691.741Z" fill="#FFD2CD"/>
<path opacity="0.3" d="M546.974 721.938C552.525 725.019 549.749 729.024 544.198 732.26C541.554 734.119 538.468 735.254 535.249 735.552C532.029 735.849 528.787 735.298 525.847 733.955C520.604 730.873 523.071 726.868 528.777 723.478C531.418 721.671 534.483 720.579 537.672 720.309C540.861 720.039 544.066 720.6 546.974 721.938ZM529.548 731.952C531.399 733.03 534.791 731.952 539.417 729.641C544.044 727.33 545.277 725.019 543.427 723.94C541.576 722.862 538.184 723.94 533.558 726.251C528.931 728.562 527.698 730.873 529.548 731.952Z" fill="#FFD2CD"/>
<path opacity="0.3" d="M532.479 713.926L512.277 725.635L507.651 723.015L523.689 713.618L517.829 712.385L520.605 709.92L528.469 711.615L532.479 713.926Z" fill="#FFD2CD"/>
<path opacity="0.3" d="M512.123 701.755C517.674 704.836 514.898 708.996 509.347 712.231C506.689 714.066 503.596 715.173 500.377 715.444C497.158 715.714 493.923 715.137 490.996 713.771C485.753 710.844 488.22 706.685 493.772 703.449C496.416 701.59 499.501 700.455 502.721 700.157C505.941 699.86 509.182 700.411 512.123 701.755ZM494.697 711.769C496.548 712.847 499.94 711.769 504.567 709.458C509.193 707.147 510.426 704.99 508.422 703.757C506.417 702.525 503.333 703.757 498.707 706.222C494.08 708.687 492.847 710.844 494.697 711.769Z" fill="#FFD2CD"/>
<path opacity="0.3" d="M494.697 691.742C500.249 694.823 497.473 698.828 491.921 702.064C489.291 703.953 486.203 705.106 482.977 705.404C479.751 705.702 476.504 705.134 473.571 703.758C468.328 700.677 470.795 696.672 476.346 693.282C479.017 691.476 482.107 690.385 485.32 690.115C488.534 689.846 491.763 690.406 494.697 691.742ZM478.043 701.756C479.893 702.834 483.286 701.756 487.912 699.445C492.538 697.134 493.772 694.823 491.767 693.744C489.763 692.666 486.678 693.744 482.052 696.055C477.426 698.366 476.192 700.677 478.043 701.756Z" fill="#FFD2CD"/>
<path opacity="0.3" d="M581.979 741.965C587.376 745.2 584.6 749.206 579.049 752.441C576.416 754.259 573.359 755.37 570.172 755.666C566.986 755.963 563.776 755.436 560.852 754.136C555.455 751.054 557.922 746.895 563.628 743.659C566.272 741.8 569.358 740.665 572.577 740.368C575.797 740.07 579.038 740.621 581.979 741.965ZM564.399 751.979C566.404 753.057 569.642 751.979 574.268 749.668C578.895 747.357 580.128 745.2 578.278 743.968C576.427 742.735 573.035 743.968 568.409 746.433C563.782 748.898 562.703 751.054 564.399 751.979Z" fill="#FFD2CD"/>
<path opacity="0.3" d="M564.399 731.95C569.951 735.032 567.175 739.191 561.623 742.273C558.993 744.162 555.905 745.315 552.679 745.613C549.453 745.91 546.205 745.342 543.273 743.967C538.03 741.04 540.497 736.88 546.203 733.491C548.843 731.684 551.908 730.592 555.097 730.322C558.287 730.052 561.492 730.613 564.399 731.95ZM546.974 741.964C548.978 743.043 552.217 741.964 556.843 739.653C561.469 737.343 562.703 735.032 560.852 733.953C559.002 732.875 555.609 733.953 550.983 736.264C546.357 738.575 545.277 740.886 546.974 741.964Z" fill="#FFD2CD"/>
<path opacity="0.3" d="M509.655 743.661C515.053 746.742 512.277 750.747 506.726 753.983C504.095 755.872 501.007 757.025 497.781 757.323C494.555 757.62 491.308 757.053 488.375 755.677C483.132 752.596 485.599 748.59 491.305 745.201C493.975 743.395 497.065 742.304 500.279 742.034C503.492 741.764 506.721 742.324 509.655 743.661ZM492.23 753.675C494.08 754.804 497.319 754.034 501.945 751.364C506.417 748.745 507.805 746.742 505.954 745.663C504.104 744.585 500.711 745.663 496.085 747.974C491.459 750.285 490.38 752.596 492.23 753.675Z" fill="#FFD2CD"/>
<path opacity="0.3" d="M544.506 763.689C549.904 766.924 547.128 770.929 541.576 774.165C538.944 775.983 535.887 777.093 532.7 777.39C529.513 777.687 526.304 777.16 523.38 775.859C517.983 772.778 520.45 768.773 526.156 765.383C528.83 763.592 531.91 762.499 535.115 762.203C538.321 761.907 541.549 762.418 544.506 763.689ZM527.081 773.857C528.931 774.935 532.17 773.857 536.796 771.392C541.422 768.927 542.656 766.924 540.805 765.845C538.955 764.767 535.562 765.845 530.936 768.156C526.31 770.467 525.23 772.778 527.081 773.857Z" fill="#FFD2CD"/>
<path opacity="0.3" d="M527.081 753.673C532.478 756.754 529.702 760.914 524.151 764.15C521.523 765.986 518.456 767.095 515.26 767.366C512.065 767.636 508.854 767.058 505.954 765.69C500.557 762.763 503.024 758.603 508.73 755.214C511.4 753.407 514.49 752.317 517.704 752.047C520.917 751.777 524.146 752.337 527.081 753.673ZM509.655 763.687C511.506 764.715 514.744 763.944 519.37 761.376C523.843 758.757 525.23 756.909 523.38 755.676C521.529 754.444 518.137 755.676 513.511 758.141C508.884 760.606 507.805 762.609 509.655 763.687Z" fill="#FFD2CD"/>
<path opacity="0.3" d="M492.076 733.492C497.627 736.727 494.851 740.733 489.3 743.968C486.656 745.828 483.571 746.963 480.351 747.26C477.131 747.558 473.89 747.007 470.949 745.663C465.706 742.582 468.174 738.576 473.879 735.187C476.524 733.396 479.579 732.302 482.76 732.006C485.941 731.709 489.145 732.221 492.076 733.492ZM474.805 743.66C476.655 744.739 479.893 743.66 484.52 741.195C489.146 738.73 490.379 736.727 488.529 735.649C486.679 734.57 483.286 735.649 478.66 737.96C474.034 740.271 472.954 742.582 474.805 743.66Z" fill="#FFD2CD"/>
<path opacity="0.3" d="M477.581 725.635L457.38 737.344L452.753 734.724L468.791 725.327L462.931 724.094L465.707 721.629L473.571 723.324L477.581 725.635Z" fill="#FFD2CD"/>
<path opacity="0.3" d="M460.155 715.466L439.954 727.329L435.328 724.556L451.365 715.312L445.505 714.08L448.281 711.615L456.146 713.309L460.155 715.466Z" fill="#FFD2CD"/>
<path opacity="0.3" d="M442.73 705.452L422.374 717.161L417.902 714.542L433.94 705.298L428.08 704.065L430.856 701.446L438.72 703.141L442.73 705.452Z" fill="#FFD2CD"/>
<path opacity="0.3" d="M385.519 715.158C391.07 718.239 388.294 722.245 382.743 725.48C380.099 727.34 377.013 728.475 373.794 728.772C370.574 729.069 367.333 728.519 364.392 727.175C359.149 724.094 361.616 720.088 367.322 716.698C369.963 714.891 373.028 713.799 376.217 713.529C379.406 713.259 382.611 713.82 385.519 715.158ZM368.093 725.172C369.944 726.25 373.336 725.172 377.962 722.707C382.589 720.242 383.822 718.239 381.972 717.161C380.121 716.082 376.729 717.161 372.103 719.472C367.476 721.783 366.243 724.094 368.093 725.172Z" fill="#FFD2CD"/>
<path opacity="0.3" d="M367.477 704.99C373.028 708.225 370.252 712.231 364.701 715.466C362.038 717.284 358.956 718.393 355.745 718.69C352.534 718.986 349.301 718.46 346.35 717.161C341.107 714.08 343.574 709.92 349.28 706.685C351.907 704.853 354.965 703.734 358.154 703.437C361.344 703.14 364.556 703.675 367.477 704.99ZM350.205 715.158C351.902 716.237 355.294 715.158 359.92 712.693C364.547 710.228 365.78 708.225 363.93 707.147C362.079 706.069 358.687 707.147 354.061 709.458C349.434 711.769 348.201 714.08 350.205 715.158Z" fill="#FFD2CD"/>
<path opacity="0.3" d="M350.051 694.976C355.603 698.057 352.827 702.217 347.276 705.453C344.618 707.287 341.525 708.395 338.306 708.665C335.086 708.936 331.852 708.359 328.925 706.993C323.682 704.066 326.149 699.906 331.701 696.517C334.371 694.71 337.461 693.62 340.674 693.35C343.888 693.08 347.117 693.64 350.051 694.976ZM332.626 704.99C334.476 706.069 337.869 704.99 342.495 702.679C347.121 700.368 348.355 698.057 346.504 696.979C344.654 695.901 341.261 696.979 336.635 699.29C332.009 701.601 330.775 703.912 332.626 704.99Z" fill="#FFD2CD"/>
<path opacity="0.3" d="M335.555 686.965L315.354 698.674L310.573 696.055L326.765 686.811L320.905 685.579L323.681 683.114L331.546 684.654L335.555 686.965Z" fill="#FFD2CD"/>
<path opacity="0.3" d="M419.907 735.187C425.305 738.268 422.529 742.428 416.977 745.663C414.349 747.499 411.282 748.608 408.087 748.879C404.891 749.15 401.681 748.572 398.781 747.204C393.384 744.276 395.851 740.117 401.557 736.881C404.201 735.022 407.286 733.887 410.506 733.589C413.725 733.292 416.967 733.843 419.907 735.187ZM402.482 745.355C404.332 746.279 407.571 745.355 412.197 742.89C416.823 740.425 418.057 738.422 416.206 737.19C414.356 735.957 410.963 737.19 406.337 739.5C401.711 741.811 400.631 744.276 402.482 745.355Z" fill="#FFD2CD"/>
<path opacity="0.3" d="M405.257 727.175L385.056 739.038L380.43 736.265L396.468 727.021L390.608 725.789L393.383 723.324L401.248 724.864L405.257 727.175Z" fill="#FFD2CD"/>
<path opacity="0.3" d="M437.333 745.2C442.73 748.435 439.954 752.441 434.403 755.676C431.77 757.494 428.713 758.605 425.526 758.902C422.34 759.199 419.13 758.671 416.206 757.371C410.809 754.29 413.276 750.284 418.982 746.895C421.656 745.104 424.736 744.011 427.942 743.715C431.147 743.419 434.376 743.929 437.333 745.2ZM419.907 754.906C421.758 755.985 424.996 754.906 429.622 752.441C434.249 749.976 435.482 747.973 433.632 746.895C431.781 745.816 428.543 746.895 423.763 749.206C418.982 751.517 418.057 753.828 419.907 754.906Z" fill="#FFD2CD"/>
<path opacity="0.3" d="M507.035 785.719C512.432 788.954 509.81 792.96 504.259 796.195C501.615 798.054 498.529 799.189 495.31 799.487C492.09 799.784 488.848 799.233 485.908 797.89C480.665 794.808 482.978 790.803 488.684 787.413C491.358 785.622 494.438 784.529 497.643 784.233C500.849 783.937 504.077 784.448 507.035 785.719ZM489.609 795.887C491.46 796.965 494.698 795.887 499.324 793.422C503.95 790.957 505.184 788.954 503.334 787.875C501.483 786.797 498.245 787.876 493.464 790.186C488.684 792.497 487.759 794.808 489.609 795.887Z" fill="#FFD2CD"/>
<g opacity="0.3">
<path opacity="0.3" d="M454.758 754.907C460.156 757.988 457.38 761.994 451.828 765.229C449.214 767.09 446.154 768.226 442.959 768.524C439.763 768.822 436.545 768.27 433.632 766.924C428.235 763.842 430.702 759.837 436.408 756.447C439.078 754.641 442.168 753.55 445.381 753.281C448.595 753.011 451.824 753.571 454.758 754.907ZM437.333 764.921C439.183 765.948 442.422 765.178 447.048 762.61C451.52 759.991 452.908 757.988 451.057 756.91C449.207 755.831 445.814 756.91 441.188 759.221C436.562 761.531 435.482 763.842 437.333 764.921Z" fill="#FFD2CD"/>
<path opacity="0.3" d="M474.959 767.385L454.758 779.248L450.132 776.475L466.17 767.231L460.31 765.999L463.24 763.534L471.104 765.074L474.959 767.385Z" fill="#FFD2CD"/>
<path opacity="0.3" d="M489.609 775.397C495.006 778.632 492.385 782.638 486.833 785.873C484.171 787.691 481.089 788.8 477.878 789.097C474.667 789.393 471.433 788.867 468.483 787.568C463.239 784.487 465.553 780.327 471.258 777.092C473.902 775.232 476.988 774.097 480.207 773.8C483.427 773.502 486.669 774.053 489.609 775.397ZM472.184 785.719C474.034 786.746 477.272 785.976 481.899 783.408C486.371 780.789 487.758 778.94 485.908 777.708C484.057 776.475 480.819 777.708 476.039 780.173C471.258 782.638 470.333 784.795 472.184 785.719Z" fill="#FFD2CD"/>
</g>
<path opacity="0.3" d="M190.6 647.063C196.152 650.298 193.376 654.304 187.825 657.539C185.162 659.357 182.08 660.466 178.869 660.763C175.658 661.059 172.425 660.533 169.474 659.234C164.231 656.153 166.544 651.993 172.25 648.758C174.912 646.94 177.994 645.831 181.205 645.534C184.416 645.238 187.65 645.764 190.6 647.063ZM173.175 657.231C175.025 658.155 178.418 657.231 183.044 654.766C187.67 652.301 188.904 650.298 186.899 649.066C184.895 647.833 181.81 649.066 177.03 651.531C172.25 653.996 171.324 656.153 173.175 657.231Z" fill="#FFD2CD"/>
<path opacity="0.3" d="M245.806 678.491L225.605 690.354L220.825 687.581L237.016 678.337L231.156 677.104L233.932 674.639L241.797 676.334L245.806 678.491Z" fill="#FFD2CD"/>
<path opacity="0.3" d="M225.451 666.474C231.003 669.555 228.227 673.561 222.675 676.796C220.045 678.685 216.957 679.838 213.731 680.136C210.505 680.434 207.257 679.866 204.325 678.491C199.082 675.409 201.549 671.404 207.255 668.014C209.895 666.207 212.96 665.115 216.149 664.845C219.339 664.575 222.544 665.136 225.451 666.474ZM208.026 676.488C209.876 677.566 213.269 676.488 217.895 674.177C222.521 671.866 223.755 669.555 221.75 668.477C219.745 667.398 216.661 668.477 212.035 670.787C207.409 673.098 206.175 675.409 208.026 676.488Z" fill="#FFD2CD"/>
<path opacity="0.3" d="M210.956 658.464L190.601 670.173L185.974 667.553L202.166 658.155L196.306 657.077L199.082 654.458L206.947 656.153L210.956 658.464Z" fill="#FFD2CD"/>
<path opacity="0.3" d="M263.232 688.659L243.031 700.368L238.404 697.749L254.442 688.351L248.582 687.119L251.358 684.654L259.222 686.349L263.232 688.659Z" fill="#FFD2CD"/>
<g opacity="0.3">
<path opacity="0.3" d="M277.573 696.671C283.125 699.752 280.349 703.758 274.798 706.993C272.167 708.882 269.079 710.035 265.853 710.333C262.627 710.631 259.38 710.063 256.447 708.688C251.204 705.607 253.671 701.601 259.377 698.212C262.018 696.405 265.082 695.313 268.272 695.043C271.461 694.773 274.666 695.334 277.573 696.671ZM260.148 706.685C261.998 707.764 265.391 706.685 270.017 704.22C274.643 701.755 275.877 699.752 274.027 698.674C272.176 697.595 268.784 698.674 264.157 700.985C259.531 703.296 258.297 705.607 260.148 706.685Z" fill="#FFD2CD"/>
<path opacity="0.3" d="M298.083 708.688L277.882 720.551L273.255 717.778L289.293 708.534L283.433 707.302L286.209 704.837L294.074 706.378L298.083 708.688Z" fill="#FFD2CD"/>
</g>
<path opacity="0.3" d="M315.508 718.855L295.307 730.564L290.681 727.945L306.719 718.547L300.859 717.315L303.634 714.85L311.499 716.544L315.508 718.855Z" fill="#FFD2CD"/>
<path opacity="0.3" d="M330.158 726.713C335.555 729.948 332.779 733.954 327.228 737.189C324.607 739.264 321.465 740.578 318.146 740.986C314.827 741.393 311.46 740.879 308.414 739.5C303.017 736.419 305.485 732.413 311.19 729.024C313.878 727.025 317.041 725.761 320.367 725.355C323.693 724.95 327.068 725.418 330.158 726.713ZM312.732 736.881C314.583 737.96 317.821 736.881 322.447 734.416C327.074 731.951 328.307 729.948 326.457 728.87C324.606 727.792 321.214 728.87 316.588 731.181C311.961 733.492 310.882 735.803 312.732 736.881Z" fill="#FFD2CD"/>
<path opacity="0.3" d="M382.435 756.909C387.832 760.144 385.056 764.15 379.659 767.385C376.997 769.203 373.915 770.312 370.704 770.609C367.493 770.905 364.259 770.379 361.308 769.08C355.911 765.998 358.379 761.839 364.084 758.604C366.741 756.772 369.824 755.654 373.038 755.358C376.251 755.061 379.487 755.595 382.435 756.909ZM365.009 767.077C366.86 768.001 370.098 767.077 374.725 764.612C379.351 762.147 380.584 760.144 378.734 758.912C376.883 757.679 373.645 758.912 368.865 761.377C364.084 763.842 363.159 765.999 365.009 767.077Z" fill="#FFD2CD"/>
<path opacity="0.3" d="M367.785 748.899L347.584 760.761L342.958 757.988L358.995 748.744L353.135 747.512L355.911 745.047L363.93 746.742L367.785 748.899Z" fill="#FFD2CD"/>
<path opacity="0.3" d="M350.359 738.884L330.158 750.593L325.532 747.974L341.57 738.73L335.71 737.497L338.485 734.878L346.504 736.573L350.359 738.884Z" fill="#FFD2CD"/>
<path opacity="0.3" d="M402.636 769.08L382.435 780.788L377.809 778.169L393.846 768.772L387.986 767.693L390.916 765.074L398.781 766.769L402.636 769.08Z" fill="#FFD2CD"/>
<path opacity="0.3" d="M420.216 779.094L399.86 790.957L395.234 788.184L411.272 778.94L405.566 777.708L408.342 775.089L416.206 776.783L420.216 779.094Z" fill="#FFD2CD"/>
<path opacity="0.3" d="M452.137 797.119C457.534 800.354 454.912 804.36 449.361 807.595C446.699 809.413 443.616 810.522 440.405 810.819C437.195 811.115 433.961 810.589 431.01 809.29C425.767 806.209 428.08 802.049 433.786 798.814C436.442 796.982 439.526 795.865 442.739 795.568C445.953 795.271 449.189 795.805 452.137 797.119ZM434.711 807.287C436.562 808.366 439.954 807.287 444.426 804.822C448.898 802.357 450.44 800.354 448.436 799.276C446.431 798.197 443.347 799.276 438.566 801.587C433.786 803.898 432.861 806.209 434.711 807.287Z" fill="#FFD2CD"/>
<path opacity="0.3" d="M437.64 789.109L417.285 800.972L412.659 798.198L428.696 788.955L422.991 787.722L425.766 785.257L433.631 786.952L437.64 789.109Z" fill="#FFD2CD"/>
<path opacity="0.3" d="M469.562 807.289C474.959 810.37 472.338 814.375 466.786 817.611C464.142 819.47 461.057 820.605 457.837 820.903C454.618 821.2 451.376 820.649 448.436 819.305C443.193 816.224 445.506 812.219 451.211 808.829C453.882 807.023 456.972 805.932 460.185 805.662C463.399 805.393 466.628 805.953 469.562 807.289ZM452.137 817.303C453.987 818.381 457.38 817.303 462.006 814.992C466.632 812.681 467.866 810.37 465.861 809.291C463.856 808.213 460.772 809.291 455.992 811.602C451.211 813.913 450.286 816.224 452.137 817.303Z" fill="#FFD2CD"/>
</g>
<g opacity="0.1">
<path opacity="0.1" d="M721.846 569.261L568.409 658.464L213.886 454.022L371.178 361.739L721.846 569.261Z" fill="black"/>
</g>
<path d="M579.975 554.934L579.82 571.881L497.165 619.949V603.002L579.975 554.934Z" fill="#95C4DE"/>
<path d="M497.166 603.002V619.949L301.014 506.867L301.168 489.92L497.166 603.002Z" fill="#A9D6EA"/>
<path d="M579.975 554.934L497.166 603.002L301.168 489.92L383.823 441.853L579.975 554.934Z" fill="#DEF6FF"/>
<path opacity="0.5" d="M579.975 554.935L301.168 489.92L383.823 441.853L579.975 554.935Z" fill="#DEF6FF"/>
<path d="M503.488 571.418L518.292 562.791L518.6 409.961L503.951 418.434L503.488 571.418Z" fill="#95C4DE"/>
<path d="M503.951 418.434L518.601 409.961L385.52 333.083L370.716 341.711L503.951 418.434Z" fill="#C0C5D1"/>
<path d="M370.715 341.712L370.253 494.542L503.488 571.419L503.951 418.435L370.715 341.712Z" fill="#A9D6EA"/>
<path d="M698.561 289.021L712.748 285.015L316.897 56.8483L302.864 60.6999L698.561 289.021Z" fill="#A9D6EA"/>
<path d="M302.864 60.6999L241.952 360.506L637.648 588.827L698.56 289.021L302.864 60.6999Z" fill="#C1E9F9"/>
<path d="M313.35 84.5803L259.377 354.652L625.775 566.488L681.906 292.873L313.35 84.5803Z" fill="url(#paint0_linear_6_46)"/>
<g opacity="0.1">
<path opacity="0.1" d="M191.834 607.315C137.399 638.128 137.09 689.893 191.834 721.322C222.339 736.814 256.075 744.889 290.296 744.889C324.516 744.889 358.252 736.814 388.757 721.322C443.347 690.509 443.655 638.744 388.757 607.315C358.245 591.847 324.511 583.785 290.296 583.785C256.08 583.785 222.346 591.847 191.834 607.315Z" fill="black"/>
</g>
<g opacity="0.1">
<path opacity="0.1" d="M191.834 607.315C137.399 638.128 137.09 689.893 191.834 721.322C222.339 736.814 256.075 744.889 290.296 744.889C324.516 744.889 358.252 736.814 388.757 721.322C443.347 690.509 443.655 638.744 388.757 607.315C358.245 591.847 324.511 583.785 290.296 583.785C256.08 583.785 222.346 591.847 191.834 607.315Z" fill="black"/>
</g>
<path d="M192.143 591.293C141.717 620.411 141.408 667.554 192.143 696.672C220.363 711.062 251.596 718.565 283.279 718.565C314.963 718.565 346.196 711.062 374.416 696.672C424.842 667.554 425.15 620.411 374.416 591.293C346.196 576.903 314.963 569.4 283.279 569.4C251.596 569.4 220.363 576.903 192.143 591.293Z" fill="url(#paint1_linear_6_46)"/>
<path d="M192.143 568.03C141.717 597.147 141.408 645.061 192.143 673.563C220.363 687.953 251.596 695.456 283.279 695.456C314.963 695.456 346.196 687.953 374.416 673.563C424.842 644.445 425.15 596.531 374.416 568.03C346.196 553.639 314.963 546.136 283.279 546.136C251.596 546.136 220.363 553.639 192.143 568.03Z" fill="url(#paint2_linear_6_46)"/>
<path d="M637.648 588.827L651.835 584.822L712.747 285.016L698.56 289.022L637.648 588.827Z" fill="#95C4DE"/>
<g opacity="0.6">
<g opacity="0.5">
<path opacity="0.5" d="M384.748 304.735V316.443L358.07 301.037V289.328L384.748 304.735Z" fill="#FF61CB"/>
</g>
<path opacity="0.6" d="M411.426 358.196V369.904L357.916 339.092V327.383L411.426 358.196Z" fill="#FF61CB"/>
<path opacity="0.6" d="M430.085 388.084V399.792L357.916 358.042V346.487L430.085 388.084Z" fill="#FF61CB"/>
<path opacity="0.6" d="M441.651 375.603L441.497 387.312L418.828 374.217V362.508L441.651 375.603Z" fill="#FF61CB"/>
<path opacity="0.6" d="M411.581 301.037V312.746L358.07 281.933L358.225 270.225L411.581 301.037Z" fill="#FF61CB"/>
<path opacity="0.6" d="M445.044 358.503V370.211L357.916 319.987L358.07 308.432L445.044 358.503Z" fill="#FF61CB"/>
<path opacity="0.6" d="M441.805 318.447L441.651 330.156L418.828 317.06L418.983 305.352L441.805 318.447Z" fill="#FF61CB"/>
<path opacity="0.6" d="M471.258 354.652V366.207L393.229 321.22V309.666L471.258 354.652Z" fill="#FF61CB"/>
<path opacity="0.6" d="M441.805 299.497V311.052L358.225 262.83V251.275L441.805 299.497Z" fill="#FF61CB"/>
<path opacity="0.6" d="M478.044 339.399L477.889 351.108L452.137 336.164V324.455L478.044 339.399Z" fill="#FF61CB"/>
<path opacity="0.6" d="M462.469 292.41V303.965L384.902 259.287V247.578L462.469 292.41Z" fill="#FF61CB"/>
<path opacity="0.6" d="M490.535 327.537L490.38 339.091L452.137 317.06V305.506L490.535 327.537Z" fill="#FF61CB"/>
<path opacity="0.6" d="M503.951 297.187L503.796 308.741L452.291 279.007V267.453L503.951 297.187Z" fill="#FF61CB"/>
<path opacity="0.6" d="M490.689 251.429V262.983L452.445 240.953V229.398L490.689 251.429Z" fill="#FF61CB"/>
<path opacity="0.6" d="M508.577 280.856V292.411L452.291 260.058V248.349L508.577 280.856Z" fill="#FF61CB"/>
<path opacity="0.6" d="M504.105 240.028V251.737L452.445 221.849V210.294L504.105 240.028Z" fill="#FF61CB"/>
<g opacity="0.5">
<path opacity="0.5" d="M378.58 243.881V255.589L358.225 243.881V232.172L378.58 243.881Z" fill="#FF61CB"/>
<path opacity="0.5" d="M411.735 244.035V255.59L358.225 224.777V213.222L411.735 244.035Z" fill="#FF61CB"/>
<path opacity="0.5" d="M430.548 235.716V247.424L358.379 205.827V194.119L430.548 235.716Z" fill="#FF61CB"/>
</g>
<g opacity="0.5">
<path opacity="0.5" d="M411.889 205.982L411.735 217.536L358.379 186.724V175.169L411.889 205.982Z" fill="#FF61CB"/>
</g>
<g opacity="0.5">
<path opacity="0.5" d="M441.96 223.389V234.944L419.137 221.849V210.14L441.96 223.389Z" fill="#FF61CB"/>
</g>
<path opacity="0.6" d="M385.211 152.366V164.075L358.533 148.669V136.96L385.211 152.366Z" fill="#FF61CB"/>
<path opacity="0.6" d="M412.043 148.823V160.378L358.533 129.565V118.011L412.043 148.823Z" fill="#FF61CB"/>
<path opacity="0.6" d="M445.506 206.136V217.845L358.379 167.62L358.533 156.066L445.506 206.136Z" fill="#FF61CB"/>
<path opacity="0.6" d="M379.042 91.6663L378.888 103.221L358.687 91.5122V79.8035L379.042 91.6663Z" fill="#FF61CB"/>
<path opacity="0.6" d="M442.113 166.233V177.787L419.291 164.692L419.445 153.137L442.113 166.233Z" fill="#FF61CB"/>
<path opacity="0.6" d="M471.721 202.284V213.993L393.692 169.006V157.297L471.721 202.284Z" fill="#FF61CB"/>
<path opacity="0.6" d="M442.267 147.129V158.838L358.533 110.616L358.687 98.9072L442.267 147.129Z" fill="#FF61CB"/>
<path opacity="0.6" d="M412.197 91.6666V103.221L358.687 72.4088V60.8541L412.197 91.6666Z" fill="#FF61CB"/>
<path opacity="0.6" d="M478.353 187.031V198.74L452.6 183.796V172.241L478.353 187.031Z" fill="#FF61CB"/>
<path opacity="0.6" d="M462.932 140.042V151.597L385.365 106.919V95.364L462.932 140.042Z" fill="#FF61CB"/>
<path opacity="0.6" d="M490.843 175.168V186.877L452.6 164.846V153.137L490.843 175.168Z" fill="#FF61CB"/>
<path opacity="0.6" d="M504.259 144.818V156.373L452.754 126.639V115.084L504.259 144.818Z" fill="#FF61CB"/>
<g opacity="0.5">
<path opacity="0.5" d="M442.268 109.076V120.631L419.445 107.535L419.599 95.9808L442.268 109.076Z" fill="#FF61CB"/>
</g>
<g opacity="0.5">
<path opacity="0.5" d="M581.98 227.704V239.413L540.035 215.225L540.189 203.67L581.98 227.704Z" fill="#FF61CB"/>
</g>
<g opacity="0.5">
<path opacity="0.5" d="M581.98 265.912V277.621L551.447 259.904V248.349L581.98 265.912Z" fill="#FF61CB"/>
</g>
<g opacity="0.5">
<path opacity="0.5" d="M581.98 246.808V258.517L504.105 213.531L504.259 201.976L581.98 246.808Z" fill="#FF61CB"/>
</g>
<g opacity="0.5">
<path opacity="0.5" d="M582.134 208.754V220.463L555.302 205.056L555.456 193.348L582.134 208.754Z" fill="#FF61CB"/>
</g>
<g opacity="0.5">
<path opacity="0.5" d="M582.134 189.65V201.359L528.624 170.546L528.778 158.838L582.134 189.65Z" fill="#FF61CB"/>
</g>
<g opacity="0.5">
<path opacity="0.5" d="M490.227 403.643V415.351L451.983 393.32V381.612L490.227 403.643Z" fill="#FF61CB"/>
<path opacity="0.5" d="M508.115 433.069V444.777L451.829 412.27L451.983 400.715L508.115 433.069Z" fill="#FF61CB"/>
<path opacity="0.5" d="M503.643 392.396V403.951L451.983 374.217V362.662L503.643 392.396Z" fill="#FF61CB"/>
</g>
<g opacity="0.5">
<path opacity="0.5" d="M581.517 399.176V410.731L503.643 365.899L503.797 354.344L581.517 399.176Z" fill="#FF61CB"/>
</g>
<g opacity="0.5">
<path opacity="0.5" d="M581.672 361.122V372.677L554.994 357.271V345.716L581.672 361.122Z" fill="#FF61CB"/>
</g>
<g opacity="0.5">
<path opacity="0.5" d="M581.671 342.018V353.727L528.315 322.915V311.206L581.671 342.018Z" fill="#FF61CB"/>
<path opacity="0.5" d="M581.825 323.069V334.624L528.315 303.811V292.102L581.825 323.069Z" fill="#FF61CB"/>
<path opacity="0.5" d="M581.825 303.965V315.52L560.853 303.503V291.948L581.825 303.965Z" fill="#FF61CB"/>
</g>
<path opacity="0.6" d="M581.826 284.861V296.57L513.512 257.13V245.575L581.826 284.861Z" fill="#FF61CB"/>
<g opacity="0.5">
<path opacity="0.5" d="M441.96 261.444L441.805 272.999L419.137 259.904V248.195L441.96 261.444Z" fill="#FF61CB"/>
</g>
<g opacity="0.5">
<path opacity="0.5" d="M581.671 380.072V391.781L539.727 367.593V356.039L581.671 380.072Z" fill="#FF61CB"/>
</g>
<path opacity="0.6" d="M581.518 418.28V429.835L550.984 412.272V400.563L581.518 418.28Z" fill="#FF61CB"/>
<g opacity="0.5">
<path opacity="0.5" d="M581.363 475.437V486.992L527.853 456.179V444.625L581.363 475.437Z" fill="#FF61CB"/>
<path opacity="0.5" d="M581.363 456.333V467.888L560.391 455.871V444.162L581.363 456.333Z" fill="#FF61CB"/>
<path opacity="0.5" d="M581.517 437.229L581.363 448.938L513.049 409.498V397.789L581.517 437.229Z" fill="#FF61CB"/>
</g>
</g>
<g opacity="0.1">
<path opacity="0.1" d="M57.5192 481.446L94.6832 503.014L131.847 481.446L94.8374 460.031L57.5192 481.446Z" fill="black"/>
</g>
<g opacity="0.14">
<path opacity="0.14" d="M62.4539 459.106L94.6833 477.748L126.913 459.106L94.8375 440.465L62.4539 459.106Z" fill="#FFDF75"/>
</g>
<g opacity="0.29">
<path opacity="0.29" d="M67.3887 438.155L94.6834 454.023L122.132 438.155L94.8376 422.44L67.3887 438.155Z" fill="#FFDF75"/>
</g>
<g opacity="0.43">
<path opacity="0.43" d="M72.3234 417.201L94.6835 430.143L117.044 417.201L94.8377 404.26L72.3234 417.201Z" fill="#FFDF75"/>
</g>
<g opacity="0.57">
<path opacity="0.57" d="M77.2581 396.248L94.6836 406.263L112.263 396.248L94.8378 386.234L77.2581 396.248Z" fill="#FFDF75"/>
</g>
<g opacity="0.71">
<path opacity="0.71" d="M82.1929 375.297L94.6837 382.538L107.175 375.297L94.8379 368.056L82.1929 375.297Z" fill="#FFDF75"/>
</g>
<g opacity="0.86">
<path opacity="0.86" d="M87.1276 354.344L94.6838 358.657L102.24 354.344L94.6838 349.876L87.1276 354.344Z" fill="#FFDF75"/>
</g>
<path d="M92.0615 333.392L94.6831 334.933L97.3046 333.392L94.6831 331.852L92.0615 333.392Z" fill="#FFDF75"/>
<g opacity="0.1">
<path opacity="0.1" d="M133.081 432.608L175.643 457.412L218.512 432.608L175.951 407.958L133.081 432.608Z" fill="black"/>
</g>
<g opacity="0.14">
<path opacity="0.14" d="M138.633 406.88L175.642 428.295L212.806 406.88L175.951 385.465L138.633 406.88Z" fill="#FDCDE7"/>
</g>
<g opacity="0.29">
<path opacity="0.29" d="M144.338 382.846L175.642 401.026L207.255 382.846L175.951 364.667L144.338 382.846Z" fill="#FDCDE7"/>
</g>
<g opacity="0.43">
<path opacity="0.43" d="M150.044 358.659L175.642 373.603L201.549 358.659L175.796 343.715L150.044 358.659Z" fill="#FDCDE7"/>
</g>
<g opacity="0.57">
<path opacity="0.57" d="M155.749 334.624L175.642 346.178L195.843 334.624L175.796 322.915L155.749 334.624Z" fill="#FDCDE7"/>
</g>
<g opacity="0.71">
<path opacity="0.71" d="M161.455 310.436L175.796 318.755L190.138 310.436L175.796 302.117L161.455 310.436Z" fill="#FDCDE7"/>
</g>
<g opacity="0.86">
<path opacity="0.86" d="M167.161 286.403L175.797 291.333L184.433 286.403L175.797 281.319L167.161 286.403Z" fill="#FDCDE7"/>
</g>
<path d="M172.713 262.215L175.797 263.91L178.881 262.215L175.797 260.521L172.713 262.215Z" fill="#FDCDE7"/>
<g opacity="0.1">
<path opacity="0.1" d="M0 517.651L32.3836 536.6L65.0756 517.651L32.692 498.855L0 517.651Z" fill="black"/>
</g>
<g opacity="0.14">
<path opacity="0.14" d="M7.09386 503.014L32.5381 517.65L58.1366 503.014L32.6923 488.224L7.09386 503.014Z" fill="#A1F7F6"/>
</g>
<g opacity="0.29">
<path opacity="0.29" d="M10.949 486.376L32.5381 498.855L54.1272 486.376L32.6923 473.897L10.949 486.376Z" fill="#A1F7F6"/>
</g>
<g opacity="0.43">
<path opacity="0.43" d="M14.8042 469.736L32.5381 480.059L50.272 469.736L32.6923 459.568L14.8042 469.736Z" fill="#A1F7F6"/>
</g>
<g opacity="0.57">
<path opacity="0.57" d="M18.8129 453.253L32.5374 461.11L46.4161 453.253L32.6916 445.241L18.8129 453.253Z" fill="#A1F7F6"/>
</g>
<g opacity="0.71">
<path opacity="0.71" d="M22.6681 436.613L32.5374 442.314L42.4067 436.613L32.6916 430.913L22.6681 436.613Z" fill="#A1F7F6"/>
</g>
<g opacity="0.86">
<path opacity="0.86" d="M26.5233 419.975L32.5374 423.519L38.5515 419.975L32.5374 416.586L26.5233 419.975Z" fill="#A1F7F6"/>
</g>
<path d="M30.5328 403.49L32.5375 404.723L34.6964 403.49L32.5375 402.258L30.5328 403.49Z" fill="#A1F7F6"/>
<path opacity="0.6" d="M354.678 579.276C395.851 600.69 395.697 634.892 354.678 656.307C331.474 666.818 306.29 672.255 280.812 672.255C255.335 672.255 230.151 666.818 206.947 656.307C166.082 635.201 165.928 600.844 206.947 579.276C230.172 568.842 255.347 563.448 280.812 563.448C306.277 563.448 331.453 568.842 354.678 579.276Z" fill="#FFEBC4"/>
<g opacity="0.86">
<path opacity="0.66" d="M361.771 521.501C408.033 545.381 408.033 583.127 361.771 607.314C335.822 619.034 307.671 625.096 279.193 625.096C250.715 625.096 222.564 619.034 196.615 607.314C150.352 583.589 150.352 545.689 196.615 521.501C222.564 509.782 250.715 503.72 279.193 503.72C307.671 503.72 335.822 509.782 361.771 521.501Z" fill="#FAE9C7"/>
</g>
<g opacity="0.71">
<path opacity="0.71" d="M370.098 463.575C421.141 490.073 420.987 532.287 370.098 558.477C341.401 571.497 310.248 578.232 278.73 578.232C247.213 578.232 216.06 571.497 187.362 558.477C136.782 532.287 136.474 489.765 187.362 463.575C216.078 450.623 247.224 443.925 278.73 443.925C310.237 443.925 341.382 450.623 370.098 463.575Z" fill="#F5E7CB"/>
</g>
<g opacity="0.57">
<path opacity="0.77" d="M377.654 405.801C433.477 434.611 433.169 481.138 377.654 509.793C346.167 524.057 311.992 531.436 277.419 531.436C242.846 531.436 208.672 524.057 177.184 509.793C121.824 481.138 121.515 434.457 177.184 405.801C208.677 391.556 242.849 384.188 277.419 384.188C311.989 384.188 346.161 391.556 377.654 405.801Z" fill="#F0E5CE"/>
</g>
<g opacity="0.43">
<path opacity="0.83" d="M385.519 347.873C446.277 378.686 445.968 429.835 385.519 461.109C351.283 476.573 314.143 484.571 276.571 484.571C239 484.571 201.859 476.573 167.624 461.109C107.945 429.835 107.945 378.994 167.469 347.873C201.752 332.484 238.91 324.526 276.494 324.526C314.079 324.526 351.236 332.484 385.519 347.873Z" fill="#EBE2D2"/>
</g>
<g opacity="0.29">
<path opacity="0.89" d="M393.384 289.946C459.076 323.993 458.768 378.532 393.384 412.271C356.397 429.024 316.256 437.691 275.646 437.691C235.036 437.691 194.895 429.024 157.909 412.271C93.4498 378.532 92.5245 323.531 157.909 289.946C194.934 273.337 235.06 264.75 275.646 264.75C316.232 264.75 356.358 273.337 393.384 289.946Z" fill="#E6E0D5"/>
</g>
<g opacity="0.14">
<path opacity="0.94" d="M400.94 232.172C471.567 268.685 471.259 327.383 401.711 363.588C332.163 399.793 219.592 400.563 148.965 363.588C78.3377 326.613 78.6461 268.377 148.194 232.172C217.741 195.968 331.238 195.968 400.94 232.172Z" fill="#E1DED9"/>
</g>
<path opacity="0.6" d="M354.678 579.276C395.851 600.69 395.697 634.892 354.678 656.307C331.474 666.818 306.29 672.255 280.812 672.255C255.335 672.255 230.151 666.818 206.947 656.307C166.082 635.201 165.928 600.844 206.947 579.276C230.172 568.842 255.347 563.448 280.812 563.448C306.277 563.448 331.453 568.842 354.678 579.276Z" fill="url(#paint3_linear_6_46)"/>
<path d="M276.031 634.43C276.031 634.43 269.863 644.29 278.345 646.601C286.826 648.912 284.359 643.674 303.018 648.295C321.677 652.917 319.364 642.595 318.439 640.438C317.513 638.281 309.957 635.2 305.948 634.122L285.592 629.346L275.723 631.194L276.031 634.43Z" fill="#111114"/>
<path d="M264.62 607.161C264.62 607.161 271.868 608.086 270.017 612.246C268.167 616.405 260.148 622.568 259.068 625.187C257.989 627.806 251.512 635.817 249.199 636.125C246.886 636.433 241.335 636.125 242.106 626.111C243.072 620.832 245.848 616.054 249.956 612.596C254.064 609.138 259.249 607.217 264.62 607.161Z" fill="#111114"/>
<path d="M234.088 426.599C229.602 434.992 226.865 444.207 226.044 453.687C225.222 463.166 226.332 472.714 229.307 481.753C229.307 481.753 244.728 533.98 241.952 544.149C234.795 562.142 232.714 581.751 235.938 600.844C238.645 609 240.758 617.341 242.261 625.802C242.261 634.429 250.896 636.278 252.438 630.116C255.522 617.482 253.98 592.678 255.985 582.818C262.421 559.933 265.077 536.152 263.85 512.412C261.845 490.689 263.85 441.235 263.85 441.235C263.85 441.235 239.639 443.238 234.088 426.599Z" fill="#EFB185"/>
<path d="M249.508 439.079C245.788 447.825 243.871 457.23 243.871 466.733C243.871 476.236 245.788 485.641 249.508 494.387C249.508 494.387 269.863 544.92 268.013 556.012C262.924 574.464 262.924 593.947 268.013 612.399C271.482 620.239 274.368 628.324 276.648 636.587C277.574 645.215 286.209 646.293 287.134 639.976C288.985 627.035 285.284 602.539 286.363 592.679C290.582 569.224 290.999 545.244 287.597 521.656C283.588 500.242 281.429 450.787 281.429 450.787C281.429 450.787 256.601 455.101 249.508 439.079Z" fill="#EFB185"/>
<path d="M317.976 345.563C320.058 341.464 322.483 337.547 325.224 333.854C327.671 331.562 330.561 329.792 333.716 328.653C336.871 327.514 340.226 327.029 343.574 327.23C348.047 328.308 343.574 331.698 338.023 335.087C336.438 335.655 335.026 336.618 333.919 337.886C332.812 339.153 332.049 340.682 331.7 342.328C330.45 346.215 328.46 349.824 325.841 352.958C323.836 355.115 317.976 345.563 317.976 345.563Z" fill="#EFB185"/>
<path d="M326.303 352.65C328.295 349.217 330.79 346.101 333.705 343.406C337.56 340.941 335.401 336.628 338.023 335.087C340.644 333.546 346.042 329.695 345.271 328.154C342.032 330.465 337.406 327.384 330.929 335.703C327.816 340.503 325.328 345.68 323.527 351.11C325.224 352.804 325.532 354.345 326.303 352.65Z" fill="#E6A376"/>
<path d="M323.836 350.955C323.836 350.955 334.939 344.33 338.023 341.865C341.107 339.4 342.341 336.473 341.261 336.319C340.182 336.165 330.775 343.098 329.387 339.092C328 335.086 324.607 349.722 323.836 350.955Z" fill="#EFB185"/>
<path d="M232.545 366.669C232.545 366.669 228.228 380.38 246.887 382.075C265.546 383.769 300.705 383.924 307.799 377.299C315.144 369.007 321.749 360.089 327.537 350.646C327.537 350.646 318.285 350.646 317.822 342.173L293.766 363.895C293.766 363.895 235.475 357.117 232.545 366.669Z" fill="#8DDFFF"/>
<path d="M232.545 366.669C235.475 357.117 294.228 364.204 294.228 364.204L318.285 342.481C318.337 343.683 318.654 344.859 319.214 345.924C319.774 346.99 320.562 347.918 321.523 348.643C316.585 356.518 310.96 363.942 304.715 370.829C297.621 377.299 262.462 377.607 243.032 375.45C239.01 375.268 235.139 373.872 231.929 371.445C231.833 369.828 232.043 368.208 232.545 366.669Z" fill="#77D2FF"/>
<path d="M283.897 367.593C283.897 367.593 245.036 329.539 231.312 340.632C231.312 340.632 219.592 349.568 224.372 380.688C229.153 411.809 236.863 417.355 229.307 435.997C234.511 445.095 242.982 451.876 253.004 454.966C263.026 458.055 273.849 457.222 283.28 452.636C282.511 440.41 284.405 428.163 288.831 416.739C295 409.036 304.252 391.781 296.387 382.075C288.523 372.369 283.897 367.593 283.897 367.593Z" fill="#77D2FF"/>
<path d="M277.574 347.72V362.356C274.153 364.16 270.285 364.945 266.431 364.617C262.577 364.289 258.897 362.863 255.831 360.507V345.101C262.805 347.53 270.222 348.424 277.574 347.72Z" fill="#EFB185"/>
<path d="M281.583 300.269C286.118 306.38 288.6 313.768 288.677 321.375C287.597 332.776 288.677 335.087 288.677 340.017C288.68 342.71 287.754 345.321 286.055 347.412C283.058 349.439 279.564 350.61 275.95 350.8C272.336 350.99 268.739 350.191 265.546 348.49C258.755 345.808 253.137 340.806 249.692 334.373C246.247 327.941 245.198 320.496 246.732 313.364C251.513 298.882 263.849 288.406 281.583 300.269Z" fill="#EFB185"/>
<path d="M276.032 293.951C276.032 293.951 294.537 298.727 289.91 310.128C285.284 321.529 269.555 319.526 270.943 326.921C272.331 334.316 279.733 346.949 274.644 350.03C268.704 353.704 263.856 358.899 260.602 365.075C257.349 371.251 255.808 378.185 256.139 385.156C258.452 403.182 267.704 420.899 256.139 421.823C250.233 423.131 244.072 422.674 238.424 420.51C232.775 418.346 227.889 414.57 224.372 409.652C217.433 397.636 216.507 398.098 220.208 367.593C221.21 347.976 227.208 328.939 237.634 312.285C241.527 305.801 247.243 300.605 254.071 297.345C260.899 294.085 268.537 292.905 276.032 293.951Z" fill="#131C24"/>
<path d="M229.924 435.998C229.924 435.998 215.274 449.71 221.134 497.623C226.531 542.147 223.91 547.693 223.91 547.693C234.476 553.288 246.104 556.592 258.036 557.388C269.967 558.184 281.932 556.456 293.149 552.315C296.027 535.646 296.027 518.607 293.149 501.937C292.902 484.996 289.773 468.221 283.897 452.329C274.357 455.931 263.892 456.283 254.132 453.329C244.371 450.376 235.86 444.283 229.924 435.998Z" fill="#1D01C2"/>
<path d="M352.21 417.664C352.21 417.664 361.462 416.277 364.238 411.963C367.322 408.172 369.77 403.906 371.486 399.33C371.486 395.479 371.486 394.246 368.402 395.325C363.3 398.254 358.716 402.002 354.831 406.417C353.427 408.513 351.366 410.084 348.971 410.885C347.584 411.501 347.121 415.969 352.21 417.664Z" fill="#EFB185"/>
<path d="M348.972 410.886C351.366 410.085 353.427 408.514 354.832 406.418C358.716 402.002 363.301 398.255 368.402 395.325H369.482C367.477 398.098 363.93 402.566 360.846 406.572C357.477 410.387 353.092 413.166 348.201 414.583C347.738 412.734 348.201 411.194 348.972 410.886Z" fill="#DB9669"/>
<path d="M275.261 377.453C278.653 374.526 285.901 372.523 292.532 382.383C299.163 392.243 317.205 420.128 317.205 420.128C317.205 420.128 348.047 410.114 351.439 409.498C350.859 410.15 350.42 410.916 350.151 411.746C349.881 412.577 349.787 413.454 349.874 414.322C349.961 415.191 350.227 416.032 350.656 416.793C351.084 417.553 351.666 418.217 352.364 418.742C352.364 418.742 323.836 440.619 313.967 437.229C304.097 433.84 262.153 389.624 275.261 377.453Z" fill="#8DDFFF"/>
<defs>
<linearGradient id="paint0_linear_6_46" x1="470.642" y1="84.5803" x2="470.642" y2="566.488" gradientUnits="userSpaceOnUse">
<stop stop-color="#EB00FF"/>
<stop offset="1" stop-color="#1B00C1"/>
</linearGradient>
<linearGradient id="paint1_linear_6_46" x1="283.742" y1="631.349" x2="276.816" y2="752.135" gradientUnits="userSpaceOnUse">
<stop stop-color="#8D98FA"/>
<stop offset="0.39" stop-color="#F4A3E2"/>
<stop offset="1" stop-color="#A93FEA"/>
</linearGradient>
<linearGradient id="paint2_linear_6_46" x1="283.279" y1="546.136" x2="283.279" y2="695.456" gradientUnits="userSpaceOnUse">
<stop stop-color="#EB00FF"/>
<stop offset="1" stop-color="#1B00C1"/>
</linearGradient>
<linearGradient id="paint3_linear_6_46" x1="2563.89" y1="4925.54" x2="5397.27" y2="4925.54" gradientUnits="userSpaceOnUse">
<stop stop-color="#FFF2C9"/>
<stop offset="1" stop-color="#FFB7BB"/>
</linearGradient>
</defs>
</svg>
