<svg width="440" height="393" viewBox="0 0 440 393" fill="none" xmlns="http://www.w3.org/2000/svg">
<g clip-path="url(#clip0_6_602)">
<g opacity="0.4">
<path opacity="0.4" d="M117.293 160.315C121.432 157.949 123.107 161.203 123.107 166.132C123.33 168.561 122.91 171.006 121.889 173.221C120.869 175.437 119.284 177.344 117.293 178.753C113.253 181.119 111.48 177.964 111.48 172.935C111.315 170.513 111.761 168.088 112.776 165.883C113.792 163.678 115.345 161.763 117.293 160.315V160.315ZM117.293 175.597C118.673 174.71 119.461 172.344 119.363 168.203C119.264 164.062 118.673 162.682 117.195 163.47C115.717 164.259 114.928 166.724 115.027 170.865C115.126 175.006 115.815 176.386 117.293 175.597Z" fill="#FFD2CD"/>
<path opacity="0.4" d="M106.651 199.655L106.75 217.402L103.203 219.473V205.374L103.104 205.472L100.246 208.726L99.5567 205.965L103.695 201.43L106.651 199.655Z" fill="#FFD2CD"/>
<path opacity="0.4" d="M117.392 193.148C121.53 190.782 123.206 194.036 123.206 198.965C123.418 201.393 122.994 203.835 121.974 206.048C120.954 208.261 119.375 210.17 117.392 211.585C113.352 213.853 111.578 210.797 111.578 205.768C111.413 203.346 111.859 200.921 112.875 198.716C113.891 196.511 115.444 194.596 117.392 193.148V193.148ZM117.392 208.43C118.771 207.543 119.56 205.177 119.461 201.036C119.363 196.895 118.771 195.514 117.293 196.303C115.815 197.092 115.027 199.557 115.126 203.698C115.224 207.839 115.914 209.219 117.392 208.43Z" fill="#FFD2CD"/>
<path opacity="0.4" d="M133.059 184.373L133.158 202.218L129.709 204.19L129.61 190.091L129.512 190.19L126.654 193.443L125.964 190.683L130.103 186.147L133.059 184.373Z" fill="#FFD2CD"/>
</g>
<g style="mix-blend-mode:multiply" opacity="0.2">
<path d="M34.4241 278.63C119.658 229.332 243.715 215.332 350.627 237.614L336.438 261.474C244.996 242.445 138.873 254.08 65.9558 296.574L60.0436 300.124L27.428 282.869L34.4241 278.63Z" fill="black"/>
</g>
<g style="mix-blend-mode:multiply" opacity="0.2">
<path d="M88.7177 309.982C152.372 272.911 245.095 262.755 325.205 279.418L309.833 303.87C245.883 290.559 171.882 298.644 120.545 328.42L116.406 330.885L83.5938 313.137L88.7177 309.982Z" fill="black"/>
</g>
<g style="mix-blend-mode:multiply" opacity="0.2">
<path d="M150.598 345.774C190.013 322.998 246.573 316.787 295.644 326.942L283.327 346.661C247.233 338.724 209.503 343.605 176.612 360.465L174.247 361.943L147.445 347.45L150.598 345.774Z" fill="black"/>
</g>
<g opacity="0.1">
<path opacity="0.1" d="M424.037 270.94C445.222 283.165 445.321 302.983 424.037 315.209C412.196 321.189 399.118 324.304 385.854 324.304C372.591 324.304 359.512 321.189 347.671 315.209C326.585 302.983 326.486 283.165 347.671 270.94C359.494 264.898 372.579 261.749 385.854 261.749C399.129 261.749 412.215 264.898 424.037 270.94V270.94Z" fill="black"/>
</g>
<path d="M350.726 205.67L350.627 230.516L335.945 254.376V229.53L350.726 205.67Z" fill="url(#paint0_linear_6_602)"/>
<path d="M93.546 275.277L99.5567 272.812L108.622 269.164L115.224 266.896L124.486 263.741L128.034 262.656C131.844 261.473 135.687 260.389 139.562 259.403L143.701 258.22C148.726 257.037 153.555 255.755 158.777 254.769H159.762L173.656 252.205L181.44 250.924L190.703 249.642L198.586 248.656L208.439 247.67L214.253 246.487H225.683H230.807H246.77H249.529H263.029H267.463L280.667 247.276H283.623C288.845 247.276 294.068 248.262 299.29 248.853L303.428 249.346L315.45 251.022L319.983 251.811C325.205 252.698 330.427 253.586 335.65 254.67V229.529C330.625 228.543 325.796 227.557 320.377 226.768L315.943 226.078L310.129 225.092L303.724 224.303H299.783C294.856 223.711 289.929 223.218 284.904 222.824H283.918H281.455L267.463 221.148H263.029H246.869C242.139 221.148 237.508 221.148 232.778 221.148H230.807H225.88L214.253 221.838L208.636 222.331H204.202L198.586 223.021L190.801 224.007L180.948 225.388C178.386 225.388 175.922 226.078 173.36 226.571H170.601L159.27 228.838H158.481C153.358 229.89 148.332 231.073 143.405 232.388L139.267 233.472L127.64 236.726L124.191 237.811L122.417 238.402L114.928 240.966C112.662 241.754 110.494 242.444 108.326 243.332C106.159 244.219 102.217 245.698 99.2611 246.881L93.2503 249.346C89.9986 250.726 86.8455 252.304 83.3967 253.783L78.4699 256.051C73.8387 258.417 69.2075 260.882 64.7733 263.544L63.0982 264.431L58.8611 267.093V291.939L64.7733 288.39C69.2075 285.728 73.8387 283.263 78.5684 280.897L83.1996 278.727C87.0426 278.234 90.0972 276.657 93.546 275.277Z" fill="url(#paint1_linear_6_602)"/>
<path d="M59.5509 268.178L59.4523 293.024L27.428 275.671V250.924L59.5509 268.178Z" fill="url(#paint2_linear_6_602)"/>
<path d="M324.909 247.475V272.321L309.833 296.772V271.926L324.909 247.475Z" fill="url(#paint3_linear_6_602)"/>
<path d="M88.7177 278.038C152.372 240.966 245.095 230.811 325.205 247.473L309.833 271.925C245.883 258.516 171.882 266.699 120.545 296.475L116.406 298.94L83.5938 281.193L88.7177 278.038Z" fill="#C0C0F6"/>
<path d="M88.7177 278.038C152.372 240.966 245.095 230.811 325.205 247.473L309.833 271.925C245.883 258.516 171.882 266.699 120.545 296.475L116.406 298.94L83.5938 281.193L88.7177 278.038Z" fill="url(#paint4_linear_6_602)"/>
<path d="M140.154 311.364L144.489 309.589L150.697 307.124L155.525 305.448L161.832 303.279L164.394 302.49L172.375 300.222L175.331 299.434L185.875 296.969H186.367L196.221 295.096L201.64 294.208L208.144 293.222L213.662 292.631L220.658 291.94H224.698H232.679H236.227H247.46H249.332H259.186H262.339L272.192 292.532H274.065L285.101 293.617H287.958C290.717 293.617 293.575 294.307 296.334 294.8L299.585 295.293C303.264 295.884 306.91 296.574 310.523 297.363V271.926L299.881 269.954L296.826 269.461L292.688 268.771L287.17 268.179H284.411C280.962 268.179 277.415 267.39 273.966 267.193H271.503C268.349 267.193 265.098 267.193 261.649 266.602H247.755H237.902H236.522H232.975L224.895 267.095H220.953H217.8H213.859L208.439 267.785L201.837 268.672L196.516 269.559H194.644L186.564 271.137H186.072L175.528 273.602L172.671 274.391C169.912 275.179 167.251 275.869 164.591 276.757L162.127 277.447H160.945L155.525 279.32L150.993 280.898L144.489 283.461L140.449 285.137C138.084 286.123 135.818 287.208 133.552 288.391C132.474 288.824 131.421 289.318 130.399 289.87C127.048 291.546 123.895 293.222 120.545 295.096L119.165 295.884L116.406 297.56V322.406L120.545 319.941C123.698 318.068 126.851 316.392 130.399 314.716L133.946 313.04L140.154 311.364Z" fill="url(#paint5_linear_6_602)"/>
<path d="M116.406 298.94L116.308 323.786L83.4953 306.039L83.5938 281.193L116.406 298.94Z" fill="url(#paint6_linear_6_602)"/>
<path d="M295.644 294.996L295.545 319.842L283.228 339.856L283.327 315.01L295.644 294.996Z" fill="url(#paint7_linear_6_602)"/>
<path d="M187.648 348.139L190.112 347.055L193.56 345.675L196.418 344.689L199.571 343.604L207.848 341.238H209.917C212.184 340.646 214.45 340.153 216.815 339.759L219.278 339.266H222.235H225.979H229.132H232.187C235.537 339.266 238.789 339.266 242.04 338.674H253.865L262.733 339.167H263.915L271.7 340.055H274.065C276.889 340.449 279.747 340.942 282.637 341.534H283.13V315.504C280.272 314.913 277.316 314.42 274.36 314.026H273.276H272.094L264.31 313.237H263.324C260.368 313.237 257.412 313.237 254.456 313.237H242.139C238.887 313.237 235.537 313.237 232.285 313.927H231.398H229.132H226.077L222.432 314.42L219.278 314.913H218.293H216.914L209.917 316.49L207.947 316.983L199.67 319.251L196.714 320.237L194.053 321.124L190.604 322.505L188.141 323.589L184.495 325.265L182.426 326.251C180.554 327.139 178.78 328.125 177.006 329.111L176.021 329.702L174.641 330.59V354.943L176.908 353.464L182.327 350.506L184.495 349.52L187.648 348.139Z" fill="url(#paint8_linear_6_602)"/>
<path d="M174.247 330.294V355.14L147.347 340.548L147.445 315.8L174.247 330.294Z" fill="url(#paint9_linear_6_602)"/>
<path d="M150.598 313.827C190.013 291.052 246.573 284.84 295.644 294.995L283.327 314.714C247.233 306.778 209.503 311.658 176.612 328.518L174.247 329.997L147.445 315.503L150.598 313.827Z" fill="#FFC3BE"/>
<path d="M150.598 313.827C190.013 291.052 246.573 284.84 295.644 294.995L283.327 314.714C247.233 306.778 209.503 311.658 176.612 328.518L174.247 329.997L147.445 315.503L150.598 313.827Z" fill="url(#paint10_linear_6_602)"/>
<path d="M377.429 171.161C380.89 170.052 384.611 170.052 388.071 171.161C391.717 173.133 394.378 173.626 396.348 175.992C398.319 178.358 397.038 179.936 394.575 180.133C390.883 180.161 387.226 179.422 383.834 177.964C382.072 176.962 380.025 176.581 378.021 176.88C377.473 176.658 376.996 176.291 376.641 175.819C376.286 175.346 376.066 174.786 376.006 174.198C375.945 173.61 376.045 173.017 376.296 172.482C376.547 171.947 376.939 171.49 377.429 171.161V171.161Z" fill="#EFB185"/>
<path d="M333.384 122.456C336.734 121.667 343.237 122.456 344.715 131.625C346.193 140.795 351.81 165.345 351.81 165.345C351.81 165.345 377.429 169.092 380.385 169.88C379.166 170.619 378.279 171.802 377.912 173.181C377.545 174.559 377.725 176.026 378.415 177.275C378.415 177.275 350.726 181.416 344.223 175.697C337.719 169.979 319.391 125.907 333.384 122.456Z" fill="#202595"/>
<path d="M369.448 286.418C369.448 281.981 370.039 277.445 370.532 272.713H357.032C357.821 275.671 358.707 278.629 359.397 281.291C359.397 288.192 354.667 290.066 358.018 297.164C358.775 298.399 359.869 299.391 361.171 300.024C362.314 300.442 363.35 301.111 364.202 301.981C365.055 302.85 365.702 303.9 366.098 305.052C366.601 306.35 367.374 307.526 368.364 308.503C370.551 310.151 373.214 311.042 375.951 311.042C378.689 311.042 381.352 310.151 383.539 308.503C386.396 304.165 373.685 295.094 369.645 287.206C369.66 286.93 369.591 286.655 369.448 286.418Z" fill="#171716"/>
<path d="M406.005 256.347C406.892 255.756 406.892 254.868 408.173 253.784C409.059 255.46 411.621 257.136 412.508 258.713H413.099C420.982 263.643 437.536 264.826 437.339 270.348C437.339 274.193 429.161 279.616 423.544 278.531C422.107 278.209 420.76 277.569 419.603 276.658C418.599 275.866 417.439 275.298 416.198 274.992C414.957 274.686 413.666 274.649 412.41 274.883C410.886 275.057 409.345 274.783 407.975 274.094C401.176 269.46 404.428 265.122 400.585 259.305L406.005 256.347Z" fill="#171716"/>
<path d="M370.532 233.374C371.472 224.796 369.897 216.128 365.999 208.43C360.777 198.57 339.099 189.5 338.902 189.5C338.705 189.5 319.983 197.979 321.461 201.035C322.939 204.092 351.022 231.107 351.022 232.487C351.988 234.408 352.233 236.612 351.711 238.698C350.061 254.908 351.397 271.283 355.653 287.01C356.449 288.221 357.502 289.241 358.736 289.999C359.971 290.756 361.358 291.232 362.797 291.392C364.237 291.552 365.694 291.392 367.065 290.925C368.436 290.457 369.687 289.693 370.729 288.686C370.729 288.095 370.729 240.276 370.729 233.374H370.532Z" fill="#FE61CA"/>
<g style="mix-blend-mode:multiply" opacity="0.3">
<path d="M372.305 233.965V233.472C372.502 239.191 372.305 235.345 372.305 233.965Z" fill="#123F5D"/>
</g>
<g style="mix-blend-mode:multiply" opacity="0.3">
<path d="M336.438 188.809C336.438 188.809 360.58 198.668 365.999 208.528C369.948 215.061 371.219 222.868 369.546 230.317C370.827 235.605 371.259 241.063 370.827 246.487C364.028 241.064 363.831 224.303 354.076 230.12C352.821 246.922 353.682 263.816 356.638 280.403C357.489 284.017 358.745 287.523 360.383 290.854C359.346 290.751 358.357 290.365 357.523 289.739C356.69 289.114 356.043 288.272 355.653 287.305C351.501 271.56 350.167 255.204 351.711 238.993C352.161 236.903 351.919 234.723 351.022 232.782C350.43 231.402 322.052 203.203 321.461 201.33C320.87 199.457 336.438 188.809 336.438 188.809Z" fill="#123F5D"/>
</g>
<path d="M327.274 226.769C345.799 225.388 362.156 222.529 362.156 222.529C368.364 243.431 398.221 261.967 401.571 264.53C403.64 264.53 409.158 258.516 410.833 255.953C405.118 246.685 378.612 210.007 369.941 204.19C364.521 200.641 317.618 199.359 317.519 196.993C313.618 195.774 309.579 195.045 305.498 194.824C297.024 194.922 294.462 229.233 327.274 226.769Z" fill="#FF61CB"/>
<g style="mix-blend-mode:multiply" opacity="0.2">
<path d="M305.793 194.922C309.875 195.144 313.913 195.872 317.815 197.091C323.64 198.553 329.654 199.119 335.65 198.768C335.081 199.773 334.385 200.7 333.581 201.528C327.077 208.824 311.311 202.317 305.793 210.402C302.246 215.627 309.439 220.261 312.888 221.149C328.851 226.177 350.726 226.276 363.142 215.726C368.561 236.825 386.889 251.417 404.822 263.249C403.941 263.905 402.935 264.375 401.866 264.629C398.22 261.967 368.364 243.53 362.452 222.628C362.452 222.628 346.095 225.487 327.57 226.867C294.462 229.233 297.024 194.922 305.793 194.922Z" fill="#1A4B6C"/>
</g>
<path d="M331.511 201.628L331.413 203.107L352.5 218.094L352.697 216.713L331.511 201.628Z" fill="#B4B9BC"/>
<path d="M352.697 216.713L352.5 218.094L391.914 199.952L392.111 198.572L352.697 216.713Z" fill="#7D8183"/>
<path d="M331.511 201.628L352.697 216.713L392.111 198.571L371.025 183.486L331.511 201.628Z" fill="#E3E5E5"/>
<path d="M359.003 191.669L357.426 190.19L350.824 216.614L352.401 218.093L359.003 191.669Z" fill="#BDBBBB"/>
<path d="M400.191 172.74L398.615 171.261L357.427 190.191L359.003 191.67L400.191 172.74Z" fill="#D2D0D0"/>
<path d="M359.003 191.669L352.401 218.093L393.589 199.064L400.191 172.739L359.003 191.669Z" fill="#D5DFE6"/>
<path d="M359.003 191.669L393.589 199.064L400.191 172.739L359.003 191.669Z" fill="#E9F0F4"/>
<path d="M298.305 139.117C298.305 139.117 306.582 125.708 337.719 122.159C337.719 122.159 342.744 120.187 341.858 136.455C342.321 139.597 343.613 142.558 345.602 145.033C347.554 148.228 348.213 152.049 347.444 155.714C346.675 159.379 344.535 162.612 341.463 164.752C339.197 172.543 339.197 180.82 341.463 188.612C345.109 197.091 324.318 204.584 306.779 202.415C304.611 202.415 299.881 200.542 302.049 193.147C306.248 182.16 307.571 170.281 305.892 158.639C303.133 144.737 295.743 146.117 298.305 139.117Z" fill="#4341D1"/>
<path d="M298.305 139.118C295.743 146.118 303.133 144.738 306.286 158.837C307.965 170.48 306.642 182.358 302.443 193.345C300.275 200.74 305.005 202.318 307.173 202.613C310.124 202.859 313.09 202.859 316.041 202.613C310.228 189.007 318.8 164.753 319.589 151.245C319.665 147.167 318.586 143.151 316.476 139.661C314.366 136.171 311.311 133.351 307.666 131.526C304.019 133.328 300.821 135.921 298.305 139.118V139.118Z" fill="#202595"/>
<path d="M333.187 96.8211C333.187 96.8211 330.723 112.991 329.245 128.372C329.216 129.157 329.365 129.94 329.68 130.66C329.995 131.38 330.469 132.02 331.065 132.532C331.662 133.044 332.366 133.414 333.126 133.616C333.886 133.817 334.681 133.845 335.453 133.696C338.935 128.348 341.068 122.235 341.669 115.881C342.269 109.527 341.32 103.122 338.902 97.2155C337.75 94.9707 336.126 93.0025 334.14 91.4465C332.155 89.8906 329.856 88.784 327.402 88.2029C324.948 87.6218 322.397 87.5802 319.926 88.0808C317.454 88.5814 315.12 89.6123 313.085 91.1026L333.187 96.8211Z" fill="#301806"/>
<path d="M336.438 118.314C334.813 120.118 333.649 122.289 333.048 124.642C332.448 126.995 332.427 129.459 332.989 131.822C333.581 133.794 335.157 141.681 323.136 138.132C323.136 138.132 310.819 131.329 314.662 127.681C318.505 124.033 319.786 121.666 316.534 108.652L336.438 118.314Z" fill="#E8A476"/>
<path d="M314.267 127.581C313.909 127.925 313.667 128.374 313.578 128.863C317.042 129.593 320.629 129.5 324.052 128.593C327.474 127.685 330.636 125.988 333.285 123.637L318.702 109.933L316.731 111.313C318.997 122.158 316.731 125.313 314.267 127.581Z" fill="#DB9669"/>
<path d="M334.664 95.1433C334.664 95.1433 337.916 96.3265 337.62 105.989C337.62 107.073 339.296 108.552 339.69 111.116C340.084 113.679 340.281 124.623 334.073 125.511C329.887 125.658 325.768 124.426 322.35 122.004C318.932 119.581 316.404 116.102 315.154 112.102C311.804 101.158 321.362 87.5515 334.664 95.1433Z" fill="#F1B287"/>
<path d="M333.975 98.5952C333.975 98.5952 306.089 107.863 325.698 144.048C321.534 144.232 317.402 143.238 313.777 141.181C310.152 139.123 307.18 136.084 305.202 132.413C303.066 122.67 303.066 112.578 305.202 102.835C305.202 102.835 308.946 85.7778 323.53 88.7357C323.53 88.7357 333.186 92.8767 333.975 98.5952Z" fill="#231202"/>
<path d="M333.975 98.5952C333.975 98.5952 338.803 97.8065 340.872 106.779C340.872 106.779 340.872 81.6369 316.928 88.5385C316.731 88.7357 331.019 90.0175 333.975 98.5952Z" fill="#301806"/>
<path d="M320.574 114.075C320.574 114.075 318.997 108.751 315.943 110.23C314.957 110.723 313.873 111.808 315.253 114.568C316.632 117.329 319.588 119.991 321.953 119.695L320.574 114.075Z" fill="#F1B287"/>
<path d="M338.31 185.261C338.31 185.261 345.208 185.261 347.573 188.712C350.082 191.335 352.176 194.328 353.78 197.585C354.372 200.346 353.78 201.332 351.711 200.74C347.72 198.934 344.083 196.43 340.971 193.346C339.752 191.945 338.137 190.948 336.34 190.486C335.354 190.092 334.664 186.542 338.31 185.261Z" fill="#EFB185"/>
<path d="M336.438 190.486C338.236 190.948 339.851 191.945 341.069 193.346C344.182 196.43 347.819 198.934 351.81 200.74H352.598C350.923 198.966 348.065 195.712 345.503 193.05C342.736 190.49 339.333 188.72 335.65 187.923C335.492 188.378 335.483 188.873 335.625 189.334C335.766 189.795 336.051 190.198 336.438 190.486V190.486Z" fill="#DB9669"/>
<path d="M301.95 136.257C305.202 135.567 310.72 136.948 311.804 146.117C312.888 155.286 313.873 179.541 313.873 179.541C313.873 179.541 337.226 184.175 339.788 185.062C339.19 185.291 338.643 185.636 338.179 186.079C337.716 186.521 337.344 187.051 337.088 187.639C336.831 188.226 336.693 188.859 336.683 189.499C336.673 190.14 336.791 190.777 337.029 191.372C337.029 191.372 310.819 195.217 305.498 189.302C300.177 183.386 288.648 139.018 301.95 136.257Z" fill="#4341D1"/>
<g opacity="0.1">
<path opacity="0.1" d="M86.1558 350.112C103.104 359.972 103.203 375.845 86.1558 385.606C76.6716 390.469 66.1677 393.005 55.511 393.005C44.8543 393.005 34.3504 390.469 24.8662 385.606C7.91791 375.747 7.81938 359.972 24.8662 350.112C34.3644 345.296 44.8628 342.786 55.511 342.786C66.1592 342.786 76.6576 345.296 86.1558 350.112Z" fill="black"/>
</g>
<path d="M51.1753 345.872C50.9124 349.361 49.8322 352.738 48.0222 355.732C45.2631 359.084 32.6505 367.169 33.6358 370.619C34.6212 374.07 43.4895 374.267 49.4017 368.352C55.3139 362.436 56.5948 361.647 59.2553 361.056C60.1602 360.814 60.9934 360.357 61.6838 359.724C62.3743 359.09 62.9016 358.3 63.2209 357.419C63.5402 356.538 63.6421 355.592 63.5178 354.663C63.3935 353.735 63.0467 352.849 62.507 352.084C58.2663 351.004 54.3679 348.867 51.1753 345.872V345.872Z" fill="black"/>
<path d="M68.5178 356.42C67.9874 360.291 66.5341 363.977 64.2807 367.167C60.9305 370.717 46.3471 378.801 47.1354 382.745C47.9237 386.689 58.1715 387.478 64.8719 381.365C71.5724 375.252 73.3461 374.365 76.1051 373.872C77.1497 373.68 78.1315 373.235 78.9647 372.576C79.7979 371.918 80.4571 371.065 80.8848 370.092C81.3125 369.119 81.4957 368.057 81.4183 366.997C81.3408 365.937 81.0052 364.912 80.4407 364.012C75.901 362.505 71.8048 359.897 68.5178 356.42V356.42Z" fill="black"/>
<path d="M104.089 255.165C104.089 255.165 55.4123 282.476 52.4562 291.152C48.2191 303.477 49.0074 311.857 51.0767 342.422V349.619C52.8827 351.065 55.0513 351.986 57.3453 352.282C59.6393 352.577 61.9703 352.236 64.0835 351.295C66.2513 350.211 64.0835 330.097 67.4337 318.857C67.9896 313.251 67.9896 307.604 67.4337 301.998C67.4337 301.998 106.848 288.392 115.914 279.912C124.979 271.433 104.089 255.165 104.089 255.165Z" fill="#2B3C4B"/>
<path d="M145.573 263.841C146.594 266.533 147.069 269.4 146.971 272.277C146.873 275.153 146.204 277.982 145.003 280.597C143.801 283.213 142.092 285.562 139.974 287.51C137.855 289.458 135.371 290.964 132.665 291.941C110.79 303.279 87.6339 316.886 87.6339 316.886C87.9609 324.331 87.5981 331.79 86.55 339.168C84.1851 350.408 80.7363 365.197 80.7363 365.197C80.7363 365.197 70.8827 368.944 66.153 363.817C66.153 363.817 65.5617 309.491 71.9666 303.378C78.3715 297.265 109.805 273.011 109.805 273.011L103.695 255.165L145.573 263.841Z" fill="#314656"/>
<path d="M132.665 291.939C110.79 303.278 87.6338 316.884 87.6338 316.884C87.9609 324.329 87.598 331.788 86.5499 339.166C84.185 350.406 82.5099 364.604 82.5099 364.604C80.653 365.203 78.7368 365.6 76.7948 365.787C80.0465 351.293 81.5245 318.856 83.0026 312.841C84.4806 306.827 107.932 297.559 124.289 288.883C129.072 286.322 133.142 282.611 136.135 278.084C139.128 273.558 140.949 268.358 141.435 262.952L145.573 263.84C146.594 266.531 147.069 269.398 146.971 272.275C146.873 275.152 146.204 277.98 145.003 280.595C143.801 283.211 142.092 285.561 139.973 287.508C137.855 289.456 135.371 290.962 132.665 291.939V291.939Z" fill="#2B3C4B"/>
<path d="M49.4015 341.436C47.3323 310.871 48.2191 303.477 52.4562 291.152C55.4123 282.476 104.089 255.165 104.089 255.165C104.089 255.165 106.75 257.334 109.804 260.391C96.6005 266.799 65.1674 283.166 59.3537 294.209C52.5547 306.927 57.5801 342.126 56.9888 352.281C54.5286 351.981 52.1134 351.385 49.7957 350.507L49.4015 341.436Z" fill="#314656"/>
<path d="M70.39 238.008C70.39 238.008 62.8027 238.008 60.0437 240.867C57.0182 243.552 54.4548 246.716 52.4564 250.234C51.471 253.29 52.4564 254.473 54.5257 254.079C58.996 252.412 63.1584 250.013 66.8427 246.98C68.222 245.496 70.0627 244.523 72.0651 244.219C73.3461 243.924 74.3315 239.98 70.39 238.008Z" fill="#EFB185"/>
<path d="M73.0503 245.009C71.8679 245.009 70.2913 244.122 66.8425 246.981C63.1582 250.013 58.9958 252.412 54.5255 254.08H53.5401L61.9157 246.192C65.1681 243.635 69.048 242 73.1488 241.459C73.3459 242.84 73.6415 244.812 73.0503 245.009Z" fill="#DB9669"/>
<path d="M114.436 187.331C110.888 186.147 104.582 187.331 103.301 197.19C102.02 207.05 98.2758 234.755 98.2758 234.755C98.2758 234.755 73.3461 238.008 70.39 238.699C70.39 238.699 74.1344 240.375 71.9666 245.502C71.9666 245.502 100.345 252.995 106.651 246.981C112.958 240.966 128.822 191.57 114.436 187.331Z" fill="#DB9669"/>
<path d="M70.39 238.008C73.3461 237.318 98.2758 234.064 98.2758 234.064C98.2758 234.064 101.922 206.359 103.301 196.5C104.681 186.64 110.888 185.654 114.436 186.64C115.329 186.941 116.139 187.447 116.801 188.119V188.119C116.801 188.119 107.932 191.373 105.863 209.514C103.794 227.656 109.903 239.093 95.1226 239.093C86.3529 239.093 77.7802 240.571 72.1637 240.769C71.6991 239.773 71.1025 238.844 70.39 238.008V238.008Z" fill="#EFB185"/>
<path d="M118.377 219.769C118.377 219.769 105.075 221.346 99.6551 216.022C99.6551 216.022 98.1771 184.275 112.366 185.063C112.366 185.063 127.639 187.331 118.377 219.769Z" fill="#EA49BD"/>
<path d="M151.88 203.599C151.88 203.599 143.701 189.5 111.184 184.866C111.184 184.866 106.06 182.697 106.553 199.458C105.925 202.682 104.503 205.699 102.414 208.233C100.235 211.488 99.397 215.46 100.077 219.319C100.756 223.178 102.9 226.624 106.06 228.938C108.169 237.06 107.895 245.617 105.272 253.587C101.232 262.263 122.614 270.742 140.745 268.968C143.011 268.968 147.938 267.292 146.066 259.108C141.992 247.603 140.973 235.237 143.11 223.22C146.756 209.219 154.343 210.895 151.88 203.599Z" fill="#FF61CB"/>
<path d="M151.879 203.599C154.343 210.895 146.756 209.219 143.11 223.318C140.973 235.335 141.992 247.702 146.066 259.207C147.938 266.996 143.011 268.475 140.745 269.066C137.728 269.313 134.696 269.313 131.679 269.066C137.986 255.066 129.807 229.628 129.413 215.726C129.396 211.409 130.611 207.177 132.915 203.526C135.219 199.876 138.516 196.96 142.42 195.12C146.15 197.227 149.377 200.121 151.879 203.599V203.599Z" fill="#EA49BD"/>
<path d="M121.234 273.994L121.333 275.473L99.655 290.952L99.5564 289.474L121.234 273.994Z" fill="#B4B9BC"/>
<path d="M99.5566 289.475L99.6551 290.954L59.1566 272.319L59.0581 270.84L99.5566 289.475Z" fill="#7D8183"/>
<path d="M121.235 273.995L99.5565 289.474L59.0581 270.84L80.7361 255.36L121.235 273.995Z" fill="#E3E5E5"/>
<path d="M93.0533 263.743L94.6299 262.264L101.429 289.377L99.7538 290.856L93.0533 263.743Z" fill="#BDBBBB"/>
<path d="M50.6828 244.32L52.2593 242.841L94.63 262.264L93.0534 263.743L50.6828 244.32Z" fill="#D2D0D0"/>
<path d="M93.0534 263.742L99.7539 290.856L57.3832 271.433L50.6827 244.319L93.0534 263.742Z" fill="#D5DFE6"/>
<path d="M93.0534 263.742L57.3832 271.432L50.6827 244.319L93.0534 263.742Z" fill="#E9F0F4"/>
<path d="M115.027 254.08C115.027 254.08 108.129 255.756 106.257 259.207C104.153 262.227 102.525 265.552 101.429 269.066C101.429 272.024 102.02 272.911 104.089 271.925C107.883 269.427 111.217 266.292 113.943 262.657C116.406 259.207 117.096 259.502 118.082 258.911C119.067 258.319 119.067 254.868 115.027 254.08Z" fill="#EFB185"/>
<path d="M118.968 259.601C117.983 260.291 116.308 259.601 113.844 262.953C111.118 266.587 107.784 269.723 103.991 272.221H103.203L109.016 263.15C111.383 260.032 114.55 257.613 118.18 256.15C118.771 257.629 119.658 259.305 118.968 259.601Z" fill="#DB9669"/>
<path d="M143.898 197.881C140.449 197.881 135.128 200.149 135.917 209.219C136.705 218.29 139.464 243.629 139.464 243.629C139.464 243.629 117.589 252.7 115.027 254.08C115.027 254.08 118.771 254.672 117.885 259.7C117.885 259.7 145.278 259.108 149.712 252.207C154.146 245.305 157.989 198.472 143.898 197.881Z" fill="#DB9669"/>
<path d="M115.027 254.081C117.589 252.7 139.464 243.629 139.464 243.629C139.464 243.629 136.804 218.291 135.917 209.22C135.03 200.149 140.449 197.783 143.898 197.881C144.786 197.959 145.653 198.193 146.46 198.572V198.572C146.46 198.572 139.168 203.6 141.139 220.164C143.11 236.728 150.993 245.108 137.986 249.151C130.005 251.616 122.417 254.869 117.392 256.447C116.723 255.547 115.926 254.75 115.027 254.081V254.081Z" fill="#EFB185"/>
<path d="M154.639 225.881C154.639 225.881 142.913 230.712 136.902 227.36C136.902 227.36 128.625 199.753 141.632 196.795C141.632 197.19 155.92 194.626 154.639 225.881Z" fill="#FF61CB"/>
<path d="M111.085 185.851C110.199 187.922 109.115 189.795 110.199 192.063C110.97 193.442 112.186 194.519 113.647 195.119C114.754 195.681 115.908 196.142 117.096 196.5C119.191 196.748 121.308 196.748 123.403 196.5V196.5C123.403 194.528 139.661 189.697 139.661 187.725C139.661 183.189 123.403 181.513 121.53 177.372C119.236 174.015 117.474 170.324 116.308 166.428C116.112 164.659 116.112 162.873 116.308 161.104C116.308 160.019 116.308 159.527 114.83 159.625C113.352 159.724 110.593 163.865 110.002 166.034C109.609 167.753 109.609 169.54 110.002 171.259C110.593 175.203 112.958 179.048 111.874 182.795C111.796 183.853 111.529 184.888 111.085 185.851V185.851Z" fill="#131C24"/>
<path d="M115.027 180.036C116.484 181.773 117.504 183.835 118.001 186.048C118.498 188.26 118.458 190.56 117.885 192.754C117.195 194.628 115.52 202.022 126.851 198.966C126.851 198.966 138.577 192.952 135.03 189.106C131.483 185.261 130.399 183.388 133.749 171.261L115.027 180.036Z" fill="#E8A476"/>
<path d="M135.03 189.401C135.34 189.728 135.546 190.14 135.621 190.585C132.378 191.185 129.039 191.017 125.874 190.092C122.708 189.167 119.803 187.512 117.392 185.26L131.384 172.837L133.158 174.119C130.694 184.176 132.862 187.331 135.03 189.401Z" fill="#DB9669"/>
<path d="M116.801 158.541C116.801 158.541 113.746 159.527 113.746 168.4C113.746 169.386 112.071 170.668 111.677 173.133C111.283 175.598 110.79 185.753 116.604 186.739C120.512 186.993 124.396 185.953 127.655 183.779C130.914 181.605 133.367 178.418 134.636 174.71C138.084 164.752 129.512 151.738 116.801 158.541Z" fill="#F1B287"/>
<path d="M124.289 166.922C121.038 165.837 116.603 164.95 115.027 161.598C114.663 160.915 114.398 160.185 114.239 159.429C115.914 155.78 117.589 155.781 123.304 153.316C127.147 151.64 130.497 150.161 133.158 154.992C133.65 155.781 134.833 156.273 134.143 156.471C129.315 163.767 140.154 172.049 132.763 174.415C132.172 170.668 127.442 167.612 124.289 166.922Z" fill="#131C24"/>
<path d="M141.533 194.133C140.665 192.534 140.453 190.66 140.942 188.907C141.29 187.149 141.818 185.431 142.518 183.781C143.534 181.82 144.138 179.673 144.292 177.47C145.536 173.562 145.531 169.362 144.277 165.456C143.023 161.551 140.582 158.134 137.296 155.681C136.368 154.758 135.161 154.17 133.863 154.007C132.566 153.844 131.25 154.117 130.124 154.782C128.997 155.447 128.123 156.467 127.638 157.682C127.153 158.897 127.084 160.239 127.442 161.498C128.49 164.473 128.991 167.613 128.92 170.766V170.766C127.32 173.573 126.794 176.868 127.442 180.034C128.231 183.189 131.778 185.358 131.285 189.006C130.963 190.396 130.359 191.704 129.512 192.851C129.512 192.851 129.512 192.851 129.512 192.851C129.101 193.844 128.994 194.936 129.205 195.989C129.415 197.042 129.934 198.009 130.694 198.767C133.453 201.528 136.015 204.584 138.971 202.316C141.177 200.78 143.253 199.065 145.179 197.189C145.08 196.105 141.927 195.415 141.533 194.133Z" fill="#131C24"/>
<path d="M126.95 178.555C126.95 178.555 129.315 173.921 131.877 175.794C132.763 176.386 133.552 177.569 131.877 179.935C131.128 181.116 130.072 182.071 128.822 182.696C127.572 183.322 126.175 183.594 124.782 183.485L126.95 178.555Z" fill="#F1B287"/>
<g opacity="0.5">
<g opacity="0.14">
<path opacity="0.14" d="M185.253 90.8322L174.709 96.9451C174.38 97.1355 174.006 97.2357 173.626 97.2357C173.245 97.2357 172.871 97.1355 172.542 96.9451L161.9 90.8322C161.573 90.6412 161.301 90.3677 161.113 90.039C160.924 89.7103 160.825 89.3379 160.825 88.9589C160.825 88.5799 160.924 88.2075 161.113 87.8789C161.301 87.5502 161.573 87.2767 161.9 87.0856L172.443 80.9727C172.773 80.7824 173.146 80.6821 173.527 80.6821C173.908 80.6821 174.281 80.7824 174.611 80.9727L185.253 87.0856C185.58 87.2767 185.851 87.5502 186.04 87.8789C186.229 88.2075 186.328 88.5799 186.328 88.9589C186.328 89.3379 186.229 89.7103 186.04 90.039C185.851 90.3677 185.58 90.6412 185.253 90.8322V90.8322Z" fill="#F70EFC"/>
</g>
<g opacity="0.29">
<path opacity="0.29" d="M185.253 81.5627L174.709 87.6756C174.38 87.866 174.006 87.9662 173.626 87.9662C173.245 87.9662 172.871 87.866 172.542 87.6756L161.9 81.5627C161.573 81.3717 161.301 81.0982 161.113 80.7695C160.924 80.4408 160.825 80.0684 160.825 79.6894C160.825 79.3104 160.924 78.938 161.113 78.6093C161.301 78.2807 161.573 78.0072 161.9 77.8161L172.443 71.7032C172.773 71.5128 173.146 71.4126 173.527 71.4126C173.908 71.4126 174.281 71.5128 174.611 71.7032L185.253 77.8161C185.58 78.0072 185.851 78.2807 186.04 78.6093C186.229 78.938 186.328 79.3104 186.328 79.6894C186.328 80.0684 186.229 80.4408 186.04 80.7695C185.851 81.0982 185.58 81.3717 185.253 81.5627V81.5627Z" fill="#F70EFC"/>
</g>
<g opacity="0.43">
<path opacity="0.43" d="M185.253 72.3938L174.709 78.5067C174.38 78.697 174.006 78.7973 173.626 78.7973C173.245 78.7973 172.871 78.697 172.542 78.5067L161.9 72.3938C161.573 72.2027 161.301 71.9292 161.113 71.6005C160.924 71.2719 160.825 70.8995 160.825 70.5205C160.825 70.1415 160.924 69.7691 161.113 69.4404C161.301 69.1117 161.573 68.8382 161.9 68.6472L172.443 62.5343C172.773 62.3439 173.146 62.2437 173.527 62.2437C173.908 62.2437 174.281 62.3439 174.611 62.5343L185.253 68.6472C185.58 68.8382 185.851 69.1117 186.04 69.4404C186.229 69.7691 186.328 70.1415 186.328 70.5205C186.328 70.8995 186.229 71.2719 186.04 71.6005C185.851 71.9292 185.58 72.2027 185.253 72.3938Z" fill="#F70EFC"/>
</g>
<g opacity="0.57">
<path opacity="0.57" d="M185.253 63.2248L174.709 69.3377C174.38 69.5281 174.006 69.6283 173.626 69.6283C173.245 69.6283 172.871 69.5281 172.542 69.3377L161.9 63.2248C161.573 63.0338 161.301 62.7603 161.113 62.4316C160.924 62.1029 160.825 61.7305 160.825 61.3515C160.825 60.9725 160.924 60.6001 161.113 60.2714C161.301 59.9428 161.573 59.6693 161.9 59.4782L172.443 53.3653C172.773 53.1749 173.146 53.0747 173.527 53.0747C173.908 53.0747 174.281 53.1749 174.611 53.3653L185.253 59.4782C185.58 59.6693 185.851 59.9428 186.04 60.2714C186.229 60.6001 186.328 60.9725 186.328 61.3515C186.328 61.7305 186.229 62.1029 186.04 62.4316C185.851 62.7603 185.58 63.0338 185.253 63.2248Z" fill="#F70EFC"/>
</g>
<g opacity="0.71">
<path opacity="0.71" d="M185.253 54.0539L174.709 60.1668C174.38 60.3572 174.006 60.4574 173.626 60.4574C173.245 60.4574 172.871 60.3572 172.542 60.1668L161.9 54.0539C161.573 53.8629 161.301 53.5894 161.113 53.2607C160.924 52.932 160.825 52.5596 160.825 52.1806C160.825 51.8016 160.924 51.4292 161.113 51.1005C161.301 50.7719 161.573 50.4984 161.9 50.3073L172.443 44.1944C172.773 44.004 173.146 43.9038 173.527 43.9038C173.908 43.9038 174.281 44.004 174.611 44.1944L185.253 50.3073C185.58 50.4984 185.851 50.7719 186.04 51.1005C186.229 51.4292 186.328 51.8016 186.328 52.1806C186.328 52.5596 186.229 52.932 186.04 53.2607C185.851 53.5894 185.58 53.8629 185.253 54.0539Z" fill="#F70EFC"/>
</g>
<g opacity="0.86">
<path opacity="0.86" d="M185.253 44.8856L174.709 51.3929C174.38 51.5833 174.006 51.6835 173.626 51.6835C173.245 51.6835 172.871 51.5833 172.542 51.3929L161.9 45.28C161.573 45.0889 161.301 44.8154 161.113 44.4868C160.924 44.1581 160.825 43.7857 160.825 43.4067C160.825 43.0277 160.924 42.6553 161.113 42.3266C161.301 41.9979 161.573 41.7244 161.9 41.5334L172.443 35.4205C172.773 35.2301 173.146 35.1299 173.527 35.1299C173.908 35.1299 174.281 35.2301 174.611 35.4205L185.253 41.5334C185.5 41.7369 185.7 41.9927 185.837 42.2825C185.974 42.5723 186.045 42.8889 186.045 43.2095C186.045 43.5301 185.974 43.8466 185.837 44.1365C185.7 44.4263 185.5 44.6821 185.253 44.8856V44.8856Z" fill="#F70EFC"/>
</g>
<path opacity="0.5" d="M185.253 35.7164L174.709 41.5335C174.38 41.7239 174.006 41.8241 173.626 41.8241C173.245 41.8241 172.871 41.7239 172.542 41.5335L161.9 35.4206C161.573 35.2296 161.301 34.9561 161.113 34.6274C160.924 34.2987 160.825 33.9263 160.825 33.5473C160.825 33.1683 160.924 32.7959 161.113 32.4672C161.301 32.1386 161.573 31.8651 161.9 31.674L172.443 25.5611C172.773 25.3707 173.146 25.2705 173.527 25.2705C173.908 25.2705 174.281 25.3707 174.611 25.5611L185.253 31.674C185.66 31.8326 186.009 32.1103 186.256 32.471C186.502 32.8316 186.634 33.2583 186.634 33.6952C186.634 34.1321 186.502 34.5588 186.256 34.9194C186.009 35.2801 185.66 35.5579 185.253 35.7164V35.7164Z" fill="#F70EFC"/>
</g>
<path d="M185.253 35.7164L174.71 41.5335C174.38 41.7239 174.006 41.8241 173.626 41.8241C173.245 41.8241 172.871 41.7239 172.542 41.5335L161.9 35.4206C161.573 35.2296 161.301 34.9561 161.113 34.6274C160.924 34.2987 160.825 33.9263 160.825 33.5473C160.825 33.1683 160.924 32.7959 161.113 32.4672C161.301 32.1386 161.573 31.8651 161.9 31.674L172.443 25.5611C172.773 25.3707 173.147 25.2705 173.527 25.2705C173.908 25.2705 174.281 25.3707 174.611 25.5611L185.253 31.674C185.66 31.8326 186.009 32.1103 186.256 32.471C186.502 32.8316 186.634 33.2583 186.634 33.6952C186.634 34.1321 186.502 34.5588 186.256 34.9194C186.009 35.2801 185.66 35.5579 185.253 35.7164V35.7164Z" fill="#E61AEA"/>
<g opacity="0.7">
<g opacity="0.14">
<path opacity="0.14" d="M280.371 148.781L272.291 153.613C272.036 153.76 271.747 153.837 271.453 153.837C271.159 153.837 270.87 153.76 270.616 153.613L262.437 149.077C262.193 148.927 261.991 148.717 261.85 148.467C261.71 148.217 261.637 147.935 261.637 147.648C261.637 147.361 261.71 147.079 261.85 146.828C261.991 146.578 262.193 146.368 262.437 146.218L270.517 141.387C270.764 141.217 271.056 141.126 271.355 141.126C271.654 141.126 271.946 141.217 272.192 141.387L280.371 146.021C280.594 146.175 280.777 146.381 280.903 146.621C281.03 146.862 281.096 147.13 281.096 147.401C281.096 147.673 281.03 147.94 280.903 148.181C280.777 148.421 280.594 148.627 280.371 148.781Z" fill="#A8FEFD"/>
</g>
<g opacity="0.29">
<path opacity="0.29" d="M280.174 135.372L272.192 140.203C271.938 140.35 271.649 140.427 271.355 140.427C271.061 140.427 270.772 140.35 270.517 140.203L262.24 135.667C261.995 135.518 261.793 135.308 261.653 135.057C261.513 134.807 261.439 134.525 261.439 134.238C261.439 133.951 261.513 133.669 261.653 133.418C261.793 133.168 261.995 132.958 262.24 132.808L270.221 127.977C270.476 127.83 270.765 127.752 271.059 127.752C271.353 127.752 271.642 127.83 271.897 127.977L280.174 132.611C280.397 132.765 280.58 132.971 280.706 133.212C280.833 133.452 280.898 133.72 280.898 133.991C280.898 134.263 280.833 134.53 280.706 134.771C280.58 135.011 280.397 135.218 280.174 135.372Z" fill="#A7FDFC"/>
</g>
<g opacity="0.43">
<path opacity="0.43" d="M279.977 121.962L271.995 126.794C271.741 126.941 271.452 127.018 271.158 127.018C270.864 127.018 270.575 126.941 270.32 126.794L262.142 122.258C261.897 122.108 261.695 121.898 261.555 121.648C261.415 121.398 261.341 121.115 261.341 120.829C261.341 120.542 261.415 120.259 261.555 120.009C261.695 119.759 261.897 119.549 262.142 119.399L270.222 114.568C270.458 114.419 270.731 114.34 271.01 114.34C271.289 114.34 271.562 114.419 271.798 114.568L280.075 119.103C280.315 119.261 280.51 119.478 280.642 119.733C280.774 119.989 280.838 120.273 280.828 120.56C280.818 120.847 280.734 121.127 280.585 121.373C280.436 121.618 280.227 121.821 279.977 121.962Z" fill="#A6FCFB"/>
</g>
<g opacity="0.57">
<path opacity="0.57" d="M279.878 108.455L271.798 113.286C271.553 113.408 271.283 113.471 271.01 113.471C270.736 113.471 270.467 113.408 270.222 113.286L261.945 108.455C261.673 108.328 261.443 108.126 261.281 107.873C261.12 107.62 261.035 107.326 261.035 107.025C261.035 106.725 261.12 106.431 261.281 106.178C261.443 105.925 261.673 105.723 261.945 105.596L269.926 100.765C270.181 100.617 270.47 100.54 270.764 100.54C271.058 100.54 271.347 100.617 271.601 100.765L279.78 105.3C280.108 105.406 280.396 105.611 280.604 105.887C280.812 106.164 280.929 106.497 280.94 106.843C280.95 107.188 280.854 107.529 280.664 107.817C280.474 108.106 280.2 108.329 279.878 108.455Z" fill="#A4FAF9"/>
</g>
<g opacity="0.71">
<path opacity="0.71" d="M279.681 95.144L271.7 99.9752C271.453 100.145 271.161 100.236 270.862 100.236C270.563 100.236 270.271 100.145 270.025 99.9752L261.747 95.3412C261.503 95.1914 261.301 94.9813 261.161 94.731C261.02 94.4807 260.947 94.1985 260.947 93.9116C260.947 93.6246 261.02 93.3425 261.161 93.0922C261.301 92.8419 261.503 92.6318 261.747 92.482L269.729 87.6508C269.984 87.5037 270.272 87.4263 270.566 87.4263C270.861 87.4263 271.149 87.5037 271.404 87.6508L279.681 92.1862C279.949 92.3291 280.173 92.5423 280.329 92.8028C280.485 93.0632 280.568 93.3613 280.568 93.6651C280.568 93.9689 280.485 94.267 280.329 94.5275C280.173 94.7879 279.949 95.0011 279.681 95.144Z" fill="#A3F9F8"/>
</g>
<g opacity="0.86">
<path opacity="0.86" d="M279.582 81.8334L271.502 86.6646C271.248 86.8117 270.959 86.8891 270.665 86.8891C270.371 86.8891 270.082 86.8117 269.827 86.6646L261.649 82.0306C261.404 81.8808 261.202 81.6707 261.062 81.4204C260.922 81.1701 260.848 80.8879 260.848 80.601C260.848 80.314 260.922 80.0319 261.062 79.7816C261.202 79.5313 261.404 79.3211 261.649 79.1714L269.729 74.3402C269.965 74.1913 270.238 74.1123 270.517 74.1123C270.796 74.1123 271.069 74.1913 271.305 74.3402L279.582 78.9742C279.827 79.124 280.029 79.3341 280.169 79.5844C280.31 79.8347 280.383 80.1168 280.383 80.4038C280.383 80.6907 280.31 80.9729 280.169 81.2232C280.029 81.4735 279.827 81.6836 279.582 81.8334Z" fill="#A2F8F7"/>
</g>
<path opacity="0.7" d="M279.385 68.4255L271.305 73.2566C271.069 73.4055 270.796 73.4845 270.517 73.4845C270.238 73.4845 269.965 73.4055 269.729 73.2566L261.452 69.017C261.207 68.8672 261.005 68.6571 260.865 68.4068C260.725 68.1565 260.651 67.8743 260.651 67.5874C260.651 67.3005 260.725 67.0183 260.865 66.768C261.005 66.5177 261.207 66.3076 261.452 66.1578L269.433 61.3266C269.688 61.1795 269.977 61.1021 270.271 61.1021C270.565 61.1021 270.854 61.1795 271.108 61.3266L279.287 65.9606C279.464 66.1106 279.607 66.2957 279.709 66.5041C279.81 66.7125 279.867 66.9397 279.877 67.1714C279.886 67.403 279.847 67.6341 279.763 67.85C279.678 68.0658 279.55 68.2618 279.385 68.4255V68.4255Z" fill="#A1F7F6"/>
</g>
<g opacity="0.8">
<path opacity="0.8" d="M279.386 68.4255L271.306 73.2566C271.07 73.4055 270.796 73.4845 270.517 73.4845C270.238 73.4845 269.965 73.4055 269.729 73.2566L261.452 69.017C261.18 68.8901 260.95 68.6881 260.789 68.4349C260.628 68.1817 260.542 67.8877 260.542 67.5874C260.542 67.2871 260.628 66.9931 260.789 66.7399C260.95 66.4866 261.18 66.2847 261.452 66.1578L269.434 61.3266C269.688 61.1795 269.977 61.1021 270.271 61.1021C270.565 61.1021 270.854 61.1795 271.109 61.3266L279.287 65.9606C279.464 66.1106 279.607 66.2957 279.709 66.5041C279.81 66.7125 279.868 66.9397 279.877 67.1714C279.886 67.403 279.847 67.6341 279.763 67.85C279.678 68.0658 279.55 68.2618 279.386 68.4255V68.4255Z" fill="#A2F8F7"/>
</g>
<g opacity="0.7">
<g opacity="0.14">
<path opacity="0.14" d="M77.3987 157.753L69.4173 162.584C69.1626 162.731 68.8737 162.809 68.5797 162.809C68.2856 162.809 67.9968 162.731 67.7421 162.584L59.4651 158.049C59.2205 157.899 59.0184 157.689 58.8782 157.439C58.738 157.188 58.6644 156.906 58.6644 156.619C58.6644 156.332 58.738 156.05 58.8782 155.8C59.0184 155.55 59.2205 155.339 59.4651 155.19L67.5451 150.654C67.7997 150.507 68.0886 150.43 68.3826 150.43C68.6767 150.43 68.9655 150.507 69.2202 150.654L77.4972 155.19C77.678 155.354 77.8206 155.556 77.9151 155.781C78.0096 156.007 78.0538 156.25 78.0444 156.494C78.035 156.739 77.9723 156.978 77.8608 157.195C77.7493 157.413 77.5915 157.603 77.3987 157.753V157.753Z" fill="#A8FEFD"/>
</g>
<g opacity="0.29">
<path opacity="0.29" d="M77.3986 144.639L69.3186 149.47C69.0565 149.593 68.7706 149.657 68.481 149.657C68.1915 149.657 67.9056 149.593 67.6435 149.47L59.3664 144.935C59.1218 144.785 58.9198 144.575 58.7796 144.325C58.6394 144.074 58.5657 143.792 58.5657 143.505C58.5657 143.218 58.6394 142.936 58.7796 142.686C58.9198 142.436 59.1218 142.226 59.3664 142.076L67.545 137.245C67.7996 137.097 68.0885 137.02 68.3825 137.02C68.6766 137.02 68.9654 137.097 69.2201 137.245L77.3986 141.78C77.6432 141.93 77.8453 142.14 77.9855 142.39C78.1257 142.64 78.1993 142.923 78.1993 143.21C78.1993 143.497 78.1257 143.779 77.9855 144.029C77.8453 144.279 77.6432 144.489 77.3986 144.639V144.639Z" fill="#A7FDFC"/>
</g>
<g opacity="0.43">
<path opacity="0.43" d="M77.3987 131.231L69.4172 136.062C69.1626 136.209 68.8737 136.287 68.5797 136.287C68.2856 136.287 67.9968 136.209 67.7421 136.062L59.4651 131.428C59.2205 131.278 59.0184 131.068 58.8782 130.818C58.738 130.568 58.6644 130.286 58.6644 129.999C58.6644 129.712 58.738 129.429 58.8782 129.179C59.0184 128.929 59.2205 128.719 59.4651 128.569L67.5451 123.836C67.7997 123.689 68.0886 123.612 68.3826 123.612C68.6767 123.612 68.9655 123.689 69.2202 123.836L77.3987 128.175C77.6928 128.307 77.9425 128.522 78.1176 128.793C78.2927 129.064 78.3858 129.38 78.3858 129.703C78.3858 130.026 78.2927 130.341 78.1176 130.613C77.9425 130.884 77.6928 131.098 77.3987 131.231V131.231Z" fill="#A6FCFB"/>
</g>
<g opacity="0.57">
<path opacity="0.57" d="M77.3985 118.315L69.4171 123.146C69.1624 123.293 68.8736 123.371 68.5795 123.371C68.2855 123.371 67.9966 123.293 67.742 123.146L59.0708 118.315C58.8262 118.165 58.6241 117.955 58.4839 117.705C58.3437 117.455 58.2701 117.173 58.2701 116.886C58.2701 116.599 58.3437 116.316 58.4839 116.066C58.6241 115.816 58.8262 115.606 59.0708 115.456L67.5449 110.428C67.7809 110.279 68.0542 110.2 68.3332 110.2C68.6122 110.2 68.8855 110.279 69.1215 110.428L77.3985 115.062C77.7616 115.152 78.0841 115.361 78.3146 115.656C78.5451 115.95 78.6704 116.314 78.6704 116.688C78.6704 117.063 78.5451 117.426 78.3146 117.721C78.0841 118.016 77.7616 118.225 77.3985 118.315Z" fill="#A4FAF9"/>
</g>
<g opacity="0.71">
<path opacity="0.71" d="M76.8075 104.512L68.7275 109.343C68.4915 109.492 68.2182 109.571 67.9392 109.571C67.6602 109.571 67.3869 109.492 67.1509 109.343L58.8738 104.709C58.6292 104.56 58.4271 104.35 58.287 104.099C58.1468 103.849 58.0731 103.567 58.0731 103.28C58.0731 102.993 58.1468 102.711 58.287 102.46C58.4271 102.21 58.6292 102 58.8738 101.85L66.9538 97.019C67.2085 96.8719 67.4973 96.7944 67.7914 96.7944C68.0854 96.7944 68.3743 96.8719 68.6289 97.019L76.8075 101.653C77.0521 101.803 77.2541 102.013 77.3943 102.263C77.5345 102.514 77.6082 102.796 77.6082 103.083C77.6082 103.37 77.5345 103.652 77.3943 103.902C77.2541 104.152 77.0521 104.362 76.8075 104.512V104.512Z" fill="#A3F9F8"/>
</g>
<g opacity="0.86">
<path opacity="0.86" d="M76.6103 91.1028L68.6289 95.934C68.3742 96.0811 68.0854 96.1586 67.7913 96.1586C67.4973 96.1586 67.2084 96.0811 66.9538 95.934L58.6767 91.3986C58.4724 91.2422 58.3068 91.0407 58.1929 90.8099C58.0789 90.579 58.0197 90.325 58.0197 90.0676C58.0197 89.8101 58.0789 89.5561 58.1929 89.3253C58.3068 89.0945 58.4724 88.893 58.6767 88.7365L66.6581 83.9054C66.9046 83.7358 67.1966 83.645 67.4957 83.645C67.7948 83.645 68.0868 83.7358 68.3333 83.9054L76.6103 88.7365C76.9232 89.0507 77.0989 89.4762 77.0989 89.9197C77.0989 90.3632 76.9232 90.7887 76.6103 91.1028V91.1028Z" fill="#A2F8F7"/>
</g>
<path opacity="0.7" d="M76.5119 77.6938L68.4319 82.5249C68.1772 82.6721 67.8884 82.7495 67.5943 82.7495C67.3003 82.7495 67.0114 82.6721 66.7568 82.5249L58.5782 77.9896C58.3336 77.8398 58.1316 77.6297 57.9914 77.3794C57.8512 77.129 57.7775 76.8469 57.7775 76.56C57.7775 76.273 57.8512 75.9909 57.9914 75.7405C58.1316 75.4902 58.3336 75.2801 58.5782 75.1303L66.5597 70.2992C66.8047 70.1775 67.0745 70.1143 67.348 70.1143C67.6215 70.1143 67.8913 70.1775 68.1363 70.2992L76.4133 74.9331C76.6426 75.0791 76.8329 75.2786 76.968 75.5146C77.103 75.7505 77.1786 76.0158 77.1883 76.2875C77.198 76.5593 77.1415 76.8293 77.0236 77.0742C76.9058 77.3192 76.7301 77.5319 76.5119 77.6938V77.6938Z" fill="#A1F7F6"/>
</g>
<g opacity="0.8">
<path opacity="0.8" d="M76.4133 77.6938L68.4319 82.525C68.1772 82.6721 67.8884 82.7495 67.5943 82.7495C67.3003 82.7495 67.0114 82.6721 66.7568 82.525L58.5782 77.9896C58.3336 77.8398 58.1316 77.6297 57.9914 77.3794C57.8512 77.129 57.7775 76.8469 57.7775 76.56C57.7775 76.273 57.8512 75.9909 57.9914 75.7405C58.1316 75.4902 58.3336 75.2801 58.5782 75.1303L66.5597 70.2992C66.8047 70.1775 67.0745 70.1143 67.348 70.1143C67.6215 70.1143 67.8913 70.1775 68.1363 70.2992L76.4133 74.9331C76.6369 75.0872 76.8197 75.2934 76.946 75.5338C77.0722 75.7743 77.1382 76.0418 77.1382 76.3135C77.1382 76.5851 77.0722 76.8527 76.946 77.0931C76.8197 77.3336 76.6369 77.5397 76.4133 77.6938V77.6938Z" fill="#A2F8F7"/>
</g>
</g>
<defs>
<linearGradient id="paint0_linear_6_602" x1="823.405" y1="1668.31" x2="891.422" y2="1845.05" gradientUnits="userSpaceOnUse">
<stop stop-color="#7904D5"/>
<stop offset="0.44" stop-color="#E58797"/>
<stop offset="1" stop-color="#C936B8"/>
</linearGradient>
<linearGradient id="paint1_linear_6_602" x1="197.256" y1="221.148" x2="197.256" y2="291.939" gradientUnits="userSpaceOnUse">
<stop stop-color="#EB00FF"/>
<stop offset="1" stop-color="#1B00C1"/>
</linearGradient>
<linearGradient id="paint2_linear_6_602" x1="1086.84" y1="1515.19" x2="1113.07" y2="1686.57" gradientUnits="userSpaceOnUse">
<stop stop-color="#7904D5"/>
<stop offset="0.44" stop-color="#E58797"/>
<stop offset="1" stop-color="#C936B8"/>
</linearGradient>
<linearGradient id="paint3_linear_6_602" x1="807.042" y1="1727.88" x2="875.491" y2="1907.12" gradientUnits="userSpaceOnUse">
<stop stop-color="#7904D5"/>
<stop offset="0.44" stop-color="#E58797"/>
<stop offset="1" stop-color="#C936B8"/>
</linearGradient>
<linearGradient id="paint4_linear_6_602" x1="3065.08" y1="1857.83" x2="8982.14" y2="1857.83" gradientUnits="userSpaceOnUse">
<stop stop-color="#E58AF3"/>
<stop offset="1" stop-color="#FFB7BB"/>
</linearGradient>
<linearGradient id="paint5_linear_6_602" x1="213.465" y1="266.602" x2="213.465" y2="322.406" gradientUnits="userSpaceOnUse">
<stop stop-color="#EB00FF"/>
<stop offset="1" stop-color="#1B00C1"/>
</linearGradient>
<linearGradient id="paint6_linear_6_602" x1="1168.91" y1="1560.26" x2="1195.13" y2="1733.75" gradientUnits="userSpaceOnUse">
<stop stop-color="#7904D5"/>
<stop offset="0.44" stop-color="#E58797"/>
<stop offset="1" stop-color="#C936B8"/>
</linearGradient>
<linearGradient id="paint7_linear_6_602" x1="692.695" y1="1642.16" x2="759.641" y2="1800.81" gradientUnits="userSpaceOnUse">
<stop stop-color="#7904D5"/>
<stop offset="0.44" stop-color="#E58797"/>
<stop offset="1" stop-color="#C936B8"/>
</linearGradient>
<linearGradient id="paint8_linear_6_602" x1="228.886" y1="313.237" x2="228.886" y2="354.943" gradientUnits="userSpaceOnUse">
<stop stop-color="#EB00FF"/>
<stop offset="1" stop-color="#1B00C1"/>
</linearGradient>
<linearGradient id="paint9_linear_6_602" x1="1034.52" y1="1497.16" x2="1061.72" y2="1656.41" gradientUnits="userSpaceOnUse">
<stop stop-color="#7904D5"/>
<stop offset="0.44" stop-color="#E58797"/>
<stop offset="1" stop-color="#C936B8"/>
</linearGradient>
<linearGradient id="paint10_linear_6_602" x1="2936.55" y1="1540.3" x2="5165.46" y2="1540.3" gradientUnits="userSpaceOnUse">
<stop stop-color="#E58AF3"/>
<stop offset="1" stop-color="#FFB7BB"/>
</linearGradient>
<clipPath id="clip0_6_602">
<rect width="478" height="393" fill="white" transform="translate(-38)"/>
</clipPath>
</defs>
</svg>
