<svg width="175" height="83" viewBox="0 0 175 83" fill="none" xmlns="http://www.w3.org/2000/svg">
<path d="M40.6622 81.4156C63.1193 81.4156 81.3244 63.1901 81.3244 40.7078C81.3244 18.2255 63.1193 0 40.6622 0C18.2051 0 0 18.2255 0 40.7078C0 63.1901 18.2051 81.4156 40.6622 81.4156Z" fill="#A008B9"/>
<path d="M71.8147 40.8948L61.2622 32.2181L59.5668 26.936L51.277 21.8442L55.9859 12.8031L55.822 11.0501C48.7854 7.82503 40.8347 7.20157 33.3823 9.29044L44.6825 12.9771H25.04C19.996 16.1192 15.9005 20.5756 13.1922 25.869L27.5453 21.4667L10.664 32.5399C9.21403 38.1966 9.29666 44.138 10.9034 49.752L23.5775 34.2929L13.5497 56.2259C17.6152 63.7413 24.4571 69.3654 32.6117 71.8951L28.857 47.5L40.085 73.2707C40.7966 73.3166 41.5115 73.3429 42.2362 73.3429C48.0498 73.3504 53.7588 71.7948 58.7667 68.8388L33.5693 41.8403L39.4095 26.3713L37.7109 41.2723L45.2531 47.3096H49.0209L51.6606 52.4046L50.349 55.7991L63.7249 60.1358L66.7417 53.1564L57.1304 52.7789L68.6076 49.1972L70.503 45.2348L66.1613 40.7077L71.8147 40.8948ZM48.2601 28.6365L56.7303 29.0108L57.6714 34.1058L48.2601 28.6365Z" fill="#FCFCFC"/>
<path d="M97.7648 29.5463V12.7412H102.766C105.216 12.7412 107.118 13.3551 108.471 14.5829C109.825 15.8107 110.501 17.5353 110.501 19.7567V22.5735C110.501 24.7949 109.815 26.5129 108.442 27.7276C107.069 28.9423 105.08 29.5485 102.474 29.5463H97.7648ZM100.388 14.5566V27.7309H102.507C104.36 27.7309 105.715 27.3063 106.569 26.4571C107.424 25.6079 107.861 24.3462 107.881 22.6719V19.6977C107.881 17.9249 107.456 16.6249 106.606 15.7976C105.755 14.9703 104.471 14.5566 102.752 14.5566H100.388Z" fill="#333333"/>
<path d="M118.381 13.7451C118.385 13.9065 118.356 14.067 118.294 14.2163C118.233 14.3656 118.14 14.5003 118.024 14.6117C117.717 14.8639 117.324 14.9874 116.928 14.9564C116.537 14.987 116.148 14.8634 115.846 14.6117C115.729 14.5006 115.636 14.366 115.574 14.2167C115.512 14.0674 115.482 13.9067 115.486 13.7451C115.483 13.582 115.513 13.4202 115.575 13.2694C115.637 13.1187 115.73 12.9823 115.846 12.8685C116.159 12.6344 116.539 12.5078 116.93 12.5078C117.321 12.5078 117.701 12.6344 118.014 12.8685C118.133 12.981 118.227 13.117 118.29 13.268C118.353 13.4189 118.384 13.5814 118.381 13.7451ZM118.181 29.5456H115.63V17.0706H118.181V29.5456Z" fill="#333333"/>
<path d="M122.864 22.734C122.864 20.7884 123.301 19.3176 124.176 18.3218C125.05 17.326 126.342 16.8281 128.052 16.8281C129.634 16.8281 130.837 17.3753 131.659 18.4696L131.787 17.0743H134.082V29.6576C134.082 31.2028 133.588 32.3901 132.6 33.2196C131.612 34.0491 130.244 34.466 128.498 34.4704C127.617 34.4505 126.745 34.2966 125.91 34.014C125.119 33.7987 124.384 33.4146 123.756 32.888L124.792 31.4797C125.781 32.2865 127.018 32.7271 128.294 32.7272C130.415 32.7272 131.508 31.8003 131.573 29.9465V28.3051C130.745 29.2856 129.571 29.7747 128.052 29.7726C126.438 29.7726 125.18 29.2867 124.277 28.3149C123.374 27.3432 122.904 25.9447 122.867 24.1194L122.864 22.734ZM125.428 23.8929C125.428 25.2914 125.687 26.319 126.199 26.9755C126.71 27.6321 127.556 27.9604 128.727 27.9604C129.299 27.9878 129.868 27.8571 130.371 27.5827C130.875 27.3082 131.293 26.9006 131.58 26.4043V20.1668C131.288 19.6832 130.872 19.2863 130.376 19.0168C129.88 18.7474 129.321 18.6151 128.757 18.6337C127.585 18.6337 126.74 18.962 126.222 19.6186C125.704 20.2752 125.439 21.2863 125.428 22.652V23.8929Z" fill="#333333"/>
<path d="M142.037 13.7451C142.042 13.9065 142.012 14.067 141.95 14.2163C141.889 14.3656 141.797 14.5003 141.68 14.6117C141.373 14.8639 140.98 14.9874 140.585 14.9564C140.193 14.987 139.805 14.8634 139.503 14.6117C139.385 14.5006 139.292 14.366 139.23 14.2167C139.168 14.0674 139.138 13.9067 139.142 13.7451C139.139 13.582 139.17 13.4202 139.232 13.2694C139.294 13.1187 139.386 12.9823 139.503 12.8685C139.815 12.6344 140.196 12.5078 140.586 12.5078C140.977 12.5078 141.357 12.6344 141.67 12.8685C141.789 12.981 141.883 13.117 141.946 13.268C142.009 13.4189 142.04 13.5814 142.037 13.7451ZM141.824 29.5456H139.273V17.0706H141.824V29.5456Z" fill="#333333"/>
<path d="M150.367 14.0342V17.0709H152.714V18.7123H150.367V26.4599C150.343 26.8564 150.452 27.2495 150.678 27.5761C150.81 27.7146 150.972 27.8209 151.152 27.8869C151.332 27.9529 151.524 27.9769 151.714 27.9569C152.06 27.9564 152.404 27.9089 152.737 27.8157L152.698 29.5458C152.12 29.6974 151.525 29.7735 150.927 29.7723C149.917 29.7723 149.15 29.4867 148.632 28.9089C148.114 28.3312 147.838 27.517 147.838 26.4632V18.7123H145.461V17.0709H147.838V14.0342H150.367Z" fill="#333333"/>
<path d="M164.946 29.5458C164.75 29.1169 164.639 28.6544 164.618 28.1834C164.201 28.6923 163.675 29.0998 163.078 29.3751C162.48 29.6503 161.829 29.7861 161.172 29.7723C159.762 29.7723 158.66 29.455 157.866 28.8203C157.47 28.4989 157.156 28.0883 156.949 27.6222C156.743 27.1561 156.649 26.6475 156.676 26.1382C156.663 25.5377 156.806 24.9441 157.089 24.4145C157.372 23.885 157.786 23.4373 158.292 23.1146C159.368 22.3683 160.841 21.9875 162.713 21.9722H164.589V20.659C164.589 19.9127 164.382 19.382 163.969 19.0668C163.556 18.7517 162.926 18.5941 162.08 18.5941C161.407 18.5559 160.741 18.7443 160.188 19.1292C159.963 19.2841 159.78 19.4916 159.655 19.7337C159.529 19.9758 159.464 20.245 159.466 20.5178H156.909C156.921 19.8442 157.171 19.1966 157.614 18.6893C158.122 18.08 158.776 17.61 159.516 17.3236C160.363 16.9831 161.269 16.8146 162.182 16.8279C163.775 16.8279 164.987 17.1452 165.818 17.7799C166.649 18.4146 167.074 19.3393 167.094 20.554V26.8538C167.084 27.7134 167.25 28.566 167.582 29.3587V29.5458H164.946ZM161.545 27.9043C162.165 27.9041 162.777 27.7615 163.333 27.4874C163.835 27.2656 164.265 26.9059 164.572 26.45V23.4856H163.139C162.143 23.4511 161.155 23.6774 160.273 24.1422C159.951 24.3076 159.681 24.5589 159.492 24.8682C159.304 25.1774 159.204 25.5328 159.204 25.8952C159.204 26.6043 159.381 27.1165 159.739 27.4382C160.096 27.7599 160.699 27.9043 161.545 27.9043Z" fill="#333333"/>
<path d="M174.987 29.546H172.436V11.8184H174.987V29.546Z" fill="#333333"/>
<path d="M106.533 60.0776L103.962 63.3178V72.5525H97.4434V40.2227H103.962V54.3161L106.025 50.833L112.033 40.2227H120.014L110.77 54.4277L120.181 72.5525H112.442L106.533 60.0776Z" fill="#333333"/>
<path d="M122.477 42.3063C122.46 41.8643 122.534 41.4236 122.695 41.0115C122.855 40.5993 123.098 40.2243 123.408 39.9098C124.096 39.3087 124.978 38.9775 125.891 38.9775C126.803 38.9775 127.685 39.3087 128.373 39.9098C128.683 40.2243 128.926 40.5993 129.086 41.0115C129.247 41.4236 129.321 41.8643 129.304 42.3063C129.304 43.2126 128.945 44.0819 128.304 44.7228C127.664 45.3637 126.796 45.7238 125.891 45.7238C124.985 45.7238 124.117 45.3637 123.477 44.7228C122.837 44.0819 122.477 43.2126 122.477 42.3063ZM129.068 72.5515H122.769V48.5241H129.068V72.5515Z" fill="#333333"/>
<path d="M139.893 48.525L140.073 50.8985C140.701 50.0079 141.538 49.285 142.51 48.7934C143.482 48.3017 144.559 48.0563 145.648 48.0785C149.773 48.0785 151.895 50.9719 152.013 56.7585V72.5525H145.704V57.2247C145.704 55.8656 145.5 54.8807 145.094 54.2701C144.687 53.6595 143.974 53.352 142.956 53.3476C141.814 53.3476 140.927 53.9319 140.293 55.1006V72.5525H133.997V48.525H139.893Z" fill="#333333"/>
<path d="M155.977 59.8013C155.977 55.8619 156.687 52.9237 158.106 50.9868C159.524 49.0499 161.513 48.0803 164.07 48.0781C166.241 48.0781 167.919 48.9371 169.104 50.6552L169.347 48.5246H175V72.5521C175 75.6161 174.143 77.9579 172.429 79.5774C170.715 81.197 168.254 82.0079 165.044 82.0101C163.627 81.9913 162.225 81.7247 160.899 81.2222C159.45 80.6969 158.37 80.0272 157.66 79.213L159.768 74.8501C160.418 75.513 161.2 76.0309 162.064 76.3701C162.91 76.7427 163.822 76.9436 164.746 76.961C166.149 76.961 167.158 76.6239 167.773 75.9498C168.387 75.2758 168.702 74.1913 168.717 72.6965V70.6349C168.186 71.3768 167.482 71.9783 166.667 72.3877C165.852 72.7972 164.949 73.0023 164.038 72.9854C161.48 72.9854 159.502 71.9907 158.106 70.0013C156.709 68.0118 155.996 65.2039 155.967 61.5774L155.977 59.8013ZM162.25 61.3771C162.25 63.5963 162.539 65.2126 163.116 66.2259C163.383 66.7146 163.783 67.1174 164.269 67.3871C164.756 67.6568 165.309 67.7824 165.864 67.7492C167.153 67.7492 168.104 67.2797 168.727 66.3474V54.8737C168.438 54.3885 168.024 53.9901 167.529 53.7203C167.033 53.4505 166.474 53.3194 165.91 53.3406C165.353 53.3117 164.798 53.4401 164.31 53.7111C163.822 53.9822 163.42 54.385 163.149 54.8737C162.548 55.8936 162.248 57.535 162.25 59.798V61.3771Z" fill="#333333"/>
</svg>
